<?xml version="1.0" encoding="UTF-8"?>
<svg xmlns="http://www.w3.org/2000/svg" xmlns:xlink="http://www.w3.org/1999/xlink" width="155px" height="77px" viewBox="0 0 155 77" version="1.1">
<g id="surface1">
<path style=" stroke:none;fill-rule:nonzero;fill:rgb(100%,100%,100%);fill-opacity:1;" d="M 27.964844 67.105469 C 27.441406 66.957031 26.300781 66.15625 25.464844 65.257812 C 24.195312 63.910156 23.929688 63.207031 23.929688 61.660156 C 23.976562 60.5625 24.238281 59.160156 24.589844 58.460938 C 25.464844 56.714844 25.378906 55.964844 24.328125 55.964844 C 22.964844 55.964844 20.421875 52.867188 20.378906 51.167969 C 20.203125 46.371094 21.957031 44.472656 26.519531 44.472656 L 29.195312 44.472656 L 30.027344 42.371094 C 30.507812 41.171875 31.5625 38.226562 32.394531 35.726562 C 33.230469 33.277344 34.675781 29.082031 35.554688 26.484375 C 36.472656 23.882812 37.703125 20.285156 38.273438 18.488281 C 38.84375 16.738281 39.71875 14.742188 40.289062 14.089844 C 42.746094 11.09375 46.691406 10.195312 50.070312 11.941406 C 52.261719 13.089844 53.3125 14.691406 54.847656 19.238281 C 55.507812 21.1875 56.910156 25.234375 57.917969 28.230469 C 58.972656 31.28125 60.769531 36.425781 61.910156 39.722656 C 63.007812 43.023438 64.539062 47.417969 65.285156 49.46875 C 69.191406 60.5625 69.453125 62.058594 67.917969 64.757812 C 66.691406 66.957031 63.269531 67.707031 60.902344 66.308594 C 59.542969 65.457031 59.277344 64.957031 57.394531 59.460938 L 56.121094 55.714844 L 36.605469 55.714844 L 35.507812 58.960938 C 33.667969 64.40625 33.230469 65.359375 32.175781 66.105469 C 30.949219 67.007812 29.324219 67.355469 27.964844 67.105469 Z M 51.558594 43.121094 C 51.339844 42.324219 50.769531 40.472656 50.246094 38.976562 C 49.71875 37.476562 49.148438 35.675781 48.929688 34.976562 C 47 28.53125 46.078125 26.632812 45.597656 28.28125 C 45.332031 29.28125 44.28125 32.429688 43.578125 34.476562 C 43.316406 35.175781 42.964844 36.277344 42.789062 36.976562 C 42.570312 37.675781 42 39.472656 41.515625 40.972656 C 40.992188 42.472656 40.597656 43.871094 40.597656 44.070312 C 40.597656 44.320312 43.140625 44.472656 46.253906 44.472656 L 51.953125 44.472656 Z M 99.054688 66.90625 C 98.308594 66.65625 97.167969 65.757812 96.554688 64.90625 L 95.414062 63.359375 L 95.414062 23.085938 L 93.921875 22.785156 C 89.273438 21.785156 87.914062 15.738281 91.554688 12.242188 L 92.914062 10.894531 L 105.238281 11.09375 C 116.507812 11.292969 117.78125 11.394531 120.105469 12.390625 C 127.382812 15.441406 130.9375 22.085938 130.367188 31.730469 C 130.105469 37.125 128.746094 40.472656 125.585938 43.722656 C 121.507812 47.917969 117.34375 49.46875 110.28125 49.46875 L 105.941406 49.46875 L 105.941406 56.414062 C 105.941406 63.160156 105.894531 63.410156 104.84375 64.90625 C 103.789062 66.257812 103.089844 66.707031 101.117188 67.207031 C 100.765625 67.304688 99.84375 67.15625 99.054688 66.90625 Z M 114.753906 37.976562 C 117.035156 37.226562 118.570312 35.128906 119.183594 31.878906 C 119.621094 29.382812 119.621094 28.832031 118.875 26.984375 C 117.957031 24.632812 115.761719 22.484375 114.183594 22.386719 C 113.65625 22.335938 111.640625 22.335938 109.800781 22.386719 L 106.378906 22.484375 L 106.378906 38.476562 L 109.800781 38.476562 C 111.640625 38.476562 113.878906 38.226562 114.753906 37.976562 Z M 114.753906 37.976562 "/>
<path style=" stroke:none;fill-rule:nonzero;fill:rgb(100%,100%,100%);fill-opacity:1;" d="M 73.269531 48.71875 C 70.066406 48.019531 68.445312 47.070312 66.644531 44.871094 C 61.691406 38.925781 62.085938 30.082031 67.480469 25.183594 L 68.96875 23.835938 L 67.960938 22.085938 C 65.945312 18.738281 66.910156 14.289062 70.109375 12.042969 C 71.996094 10.691406 76.207031 10.492188 78.136719 11.640625 C 80.152344 12.839844 81.207031 14.390625 80.679688 15.390625 C 79.976562 16.640625 78.882812 16.6875 77.652344 15.589844 C 75.898438 13.992188 73.707031 13.742188 71.996094 14.992188 C 71.164062 15.539062 70.417969 16.4375 70.285156 17.039062 C 69.933594 18.589844 70.722656 21.035156 72.171875 22.734375 L 73.488281 24.285156 L 70.898438 26.632812 C 69.410156 27.933594 67.875 29.832031 67.347656 30.929688 C 66.164062 33.628906 66.207031 37.125 67.480469 39.972656 C 70.285156 46.371094 79.714844 47.417969 84.757812 41.871094 C 86.644531 39.824219 87.257812 37.574219 86.863281 34.226562 C 86.644531 32.078125 86.25 31.078125 84.84375 29.28125 C 83.835938 27.980469 82.695312 26.984375 82.171875 26.984375 C 81.074219 26.984375 77.699219 29.730469 77.082031 31.128906 C 76.777344 31.730469 76.511719 33.226562 76.46875 34.476562 C 76.335938 36.625 76.25 36.726562 75.023438 36.726562 C 73.925781 36.726562 73.707031 36.476562 73.398438 34.976562 C 72.917969 32.628906 73.3125 30.378906 74.410156 28.78125 C 74.890625 28.082031 77.171875 25.882812 79.453125 23.984375 C 84.582031 19.636719 85.328125 18.1875 84.277344 14.742188 C 83.53125 12.140625 83.835938 10.992188 85.371094 10.992188 C 86.511719 10.992188 87.433594 12.792969 87.738281 15.789062 C 88.089844 18.488281 87.433594 20.636719 85.636719 22.886719 L 84.714844 23.984375 L 86.773438 26.382812 C 90.546875 30.78125 91.335938 35.976562 89.011719 41.324219 C 86.425781 47.21875 80.066406 50.21875 73.269531 48.71875 Z M 73.269531 48.71875 "/>
<path style=" stroke:none;fill-rule:nonzero;fill:rgb(93.333333%,23.137255%,20%);fill-opacity:1;" d="M 26.34375 76.101562 C 22.398438 75.152344 16.039062 71.703125 12.96875 68.855469 C 11.652344 67.65625 10.160156 66.457031 9.722656 66.308594 C 9.285156 66.105469 9.019531 65.808594 9.152344 65.605469 C 9.328125 65.457031 8.582031 64.207031 7.53125 62.910156 C 5.160156 59.910156 1.917969 52.867188 0.863281 48.46875 C -0.230469 43.871094 -0.230469 32.980469 0.863281 28.480469 C 1.785156 24.734375 4.066406 19.335938 6.082031 16.140625 C 6.828125 14.941406 7.925781 13.242188 8.496094 12.34375 C 9.066406 11.441406 9.546875 10.84375 9.636719 10.992188 C 9.679688 11.144531 10.820312 10.144531 12.132812 8.84375 C 15.25 5.695312 22.265625 1.800781 26.652344 0.800781 C 29.589844 0.101562 36.296875 0 77.433594 0 C 130.71875 0 128.394531 -0.148438 135.542969 3.699219 C 137.734375 4.898438 140.585938 6.84375 141.902344 8.09375 C 143.214844 9.292969 144.707031 10.492188 145.144531 10.644531 C 145.585938 10.84375 145.847656 11.144531 145.714844 11.34375 C 145.539062 11.492188 146.328125 12.742188 147.425781 14.140625 C 150.1875 17.636719 153.566406 25.683594 154.441406 30.980469 C 155.320312 35.925781 155.058594 43.921875 153.960938 48.667969 C 150.804688 61.859375 139.972656 73.402344 128.21875 76.152344 C 123.261719 77.300781 31.078125 77.300781 26.34375 76.101562 Z M 31.957031 66.355469 C 33.097656 65.707031 33.972656 63.957031 35.332031 59.609375 L 36.519531 55.714844 L 56.164062 55.714844 L 57.523438 59.710938 C 59.453125 65.507812 59.453125 65.40625 60.902344 66.257812 C 64.628906 68.457031 68.882812 65.808594 68.839844 61.308594 C 68.792969 59.460938 54.148438 16.539062 52.789062 14.339844 C 50.859375 11.292969 46.035156 10.09375 42.875 11.941406 C 39.71875 13.792969 39.980469 13.242188 33.800781 31.480469 C 31.695312 37.675781 29.808594 43.121094 29.546875 43.621094 C 29.238281 44.269531 28.582031 44.472656 26.429688 44.472656 C 22.703125 44.472656 20.773438 45.96875 20.203125 49.316406 C 19.765625 52.015625 22.265625 55.964844 24.414062 55.964844 C 25.421875 55.964844 25.421875 56.011719 24.589844 58.3125 C 23.582031 60.960938 23.757812 63.160156 25.070312 64.90625 C 26.78125 67.207031 29.5 67.804688 31.957031 66.355469 Z M 102.738281 66.707031 C 103.265625 66.558594 104.230469 65.707031 104.84375 64.90625 C 105.894531 63.410156 105.941406 63.160156 105.941406 56.414062 L 105.941406 49.46875 L 110.457031 49.46875 C 117.824219 49.46875 122.515625 47.570312 126.246094 43.023438 C 129.578125 38.976562 130.277344 36.777344 130.277344 30.230469 C 130.277344 24.335938 129.972656 22.886719 127.824219 18.9375 C 126.289062 16.191406 123.527344 13.839844 120.105469 12.390625 C 117.78125 11.394531 116.507812 11.292969 105.238281 11.09375 L 92.914062 10.894531 L 91.554688 12.242188 C 87.914062 15.738281 89.273438 21.785156 93.921875 22.785156 L 95.414062 23.085938 L 95.414062 63.359375 L 96.554688 64.90625 C 97.652344 66.40625 99.84375 67.507812 101.117188 67.207031 C 101.464844 67.105469 102.210938 66.90625 102.738281 66.707031 Z M 81.6875 48.167969 C 86.730469 46.570312 90.328125 41.324219 90.285156 35.527344 C 90.238281 31.828125 89.273438 29.28125 86.773438 26.382812 L 84.714844 23.984375 L 85.636719 22.886719 C 87.125 21.035156 87.960938 18.6875 87.960938 16.390625 C 87.960938 12.59375 85.546875 9.644531 84.054688 11.691406 C 83.707031 12.191406 83.75 12.890625 84.230469 14.441406 C 85.328125 18.039062 84.539062 19.585938 79.453125 23.984375 C 74.363281 28.382812 73.488281 29.582031 73.179688 32.578125 C 72.875 35.527344 73.617188 37.074219 75.152344 36.875 C 76.207031 36.726562 76.335938 36.527344 76.46875 34.476562 C 76.601562 31.480469 77.171875 30.378906 79.496094 28.480469 C 81.820312 26.582031 82.871094 26.734375 84.800781 29.230469 C 86.207031 31.03125 87.082031 33.679688 87.082031 36.125 C 87.082031 43.070312 77.871094 47.867188 71.425781 44.222656 C 68.3125 42.421875 66.777344 39.773438 66.558594 35.777344 C 66.425781 33.027344 66.515625 32.480469 67.785156 30.378906 C 68.53125 29.082031 70.15625 27.183594 71.339844 26.183594 L 73.53125 24.335938 L 72.171875 22.785156 C 70.679688 20.9375 69.804688 18.289062 70.375 17.039062 C 71.734375 14.191406 75.109375 13.441406 77.476562 15.441406 C 78.925781 16.6875 79.976562 16.640625 80.679688 15.390625 C 81.207031 14.390625 80.152344 12.839844 78.136719 11.640625 C 76.382812 10.59375 71.996094 10.691406 70.285156 11.890625 C 67.085938 13.992188 65.988281 18.488281 67.828125 21.9375 L 68.707031 23.632812 L 66.996094 25.683594 C 63.972656 29.28125 63.226562 31.230469 63.226562 35.226562 C 63.226562 37.875 63.488281 39.273438 64.234375 40.972656 C 67.480469 48.167969 73.574219 50.71875 81.6875 48.167969 Z M 81.6875 48.167969 "/>
<path style=" stroke:none;fill-rule:nonzero;fill:rgb(93.333333%,23.137255%,20%);fill-opacity:1;" d="M 40.597656 44.019531 C 40.597656 43.773438 41.210938 41.824219 41.957031 39.675781 C 42.703125 37.476562 43.535156 34.925781 43.886719 33.976562 C 45.507812 29.082031 46.210938 27.433594 46.429688 27.832031 C 46.605469 28.132812 47.304688 30.179688 48.050781 32.429688 C 48.753906 34.628906 49.9375 38.273438 50.683594 40.472656 L 51.953125 44.472656 L 46.296875 44.472656 C 43.140625 44.472656 40.597656 44.269531 40.597656 44.019531 Z M 106.378906 30.480469 L 106.378906 22.484375 L 110.324219 22.484375 C 116.332031 22.484375 118.21875 23.785156 119.140625 28.480469 C 119.972656 32.628906 117.957031 36.976562 114.753906 37.976562 C 113.878906 38.226562 111.640625 38.476562 109.800781 38.476562 L 106.378906 38.476562 Z M 106.378906 30.480469 "/>
</g>
</svg>
