<?xml version="1.0" encoding="UTF-8"?>
<svg xmlns="http://www.w3.org/2000/svg" xmlns:xlink="http://www.w3.org/1999/xlink" width="170px" height="65px" viewBox="0 0 171 65" version="1.1">
<g id="surface1">
<path style=" stroke:none;fill-rule:evenodd;fill:rgb(100%,95.686275%,0%);fill-opacity:1;" d="M 0 65 L 14.230469 0 L 171 0 L 156.769531 65 Z M 0 65 "/>
<path style=" stroke:none;fill-rule:nonzero;fill:rgb(15.294118%,14.117647%,14.509804%);fill-opacity:1;" d="M 108.707031 43.257812 C 107.605469 42.058594 108.246094 39.714844 108.84375 37.003906 L 110.773438 27.902344 L 118.667969 27.902344 L 120.09375 21.144531 L 112.195312 21.144531 L 113.617188 14.386719 L 106.136719 14.386719 L 101.269531 37.648438 C 100.535156 41.140625 100.257812 43.855469 101.773438 46.792969 C 103.152344 49.507812 107.925781 52.125 113.9375 50.472656 L 115.269531 44.175781 C 111.136719 44.683594 109.535156 44.128906 108.707031 43.257812 M 45.585938 14.386719 L 42 31.167969 L 28.917969 31.167969 L 32.453125 14.386719 L 24.972656 14.386719 L 17.355469 50.429688 L 24.878906 50.429688 L 27.5 37.925781 L 40.582031 37.925781 L 37.917969 50.429688 L 45.355469 50.429688 L 52.972656 14.386719 Z M 88.554688 23.675781 C 85.9375 25.878906 84.46875 28.730469 83.503906 33.28125 L 79.875 50.429688 L 87.363281 50.429688 L 90.34375 36.222656 C 91.03125 32.914062 91.582031 30.796875 92.820312 29.511719 C 94.523438 27.765625 96.996094 27.671875 99.980469 27.902344 L 101.40625 21.144531 C 96.175781 19.8125 91.582031 21.144531 88.554688 23.675781 M 146.761719 21.144531 L 123.484375 21.144531 L 122.066406 27.902344 L 135.5625 27.902344 L 118.667969 43.898438 L 117.289062 50.429688 L 140.5625 50.429688 L 141.988281 43.671875 L 128.402344 43.671875 L 145.386719 27.582031 Z M 68.167969 20.640625 C 65.644531 20.640625 62.203125 21.421875 58.851562 24.089844 C 51.183594 30.109375 47.421875 50.976562 63.808594 50.976562 C 68.035156 50.976562 72.757812 49.644531 76.066406 47.121094 L 73.128906 42.058594 C 70.648438 43.992188 58.117188 48.175781 59.449219 37.96875 L 78.957031 37.96875 C 78.957031 37.96875 81.4375 29.789062 77.859375 24.871094 C 74.824219 20.6875 69.226562 20.640625 68.167969 20.640625 M 73.035156 31.808594 L 61.058594 31.808594 C 61.464844 30.203125 64.039062 26.203125 68.71875 26.617188 C 73.816406 27.074219 73.035156 31.808594 73.035156 31.808594 M 148.734375 43.207031 C 146.53125 43.207031 144.46875 44.960938 144.003906 47.121094 L 143.917969 47.945312 L 144.191406 47.945312 L 143.917969 47.945312 C 143.917969 49.695312 145.152344 50.976562 147.039062 50.976562 C 149.191406 50.976562 151.257812 49.1875 151.71875 47.070312 L 151.8125 46.292969 C 151.855469 44.546875 150.574219 43.207031 148.734375 43.207031 M 151.214844 46.980469 C 150.84375 48.867188 148.921875 50.472656 147.039062 50.472656 C 145.386719 50.472656 144.46875 49.460938 144.46875 47.945312 L 144.511719 47.257812 C 144.878906 45.417969 146.804688 43.761719 148.644531 43.761719 C 150.296875 43.808594 151.214844 44.820312 151.257812 46.292969 Z M 148.414062 45.234375 L 146.761719 45.234375 L 145.980469 48.953125 L 146.804688 48.953125 L 147.039062 47.761719 L 147.679688 47.761719 L 148.230469 48.953125 L 149.191406 48.953125 L 148.550781 47.621094 C 149.054688 47.441406 149.46875 47.070312 149.605469 46.472656 C 149.789062 45.695312 149.285156 45.234375 148.414062 45.234375 M 148.785156 46.519531 C 148.691406 46.84375 148.457031 47.070312 148.046875 47.070312 L 147.21875 47.070312 L 147.453125 45.96875 L 148.277344 45.96875 C 148.644531 45.96875 148.828125 46.152344 148.785156 46.519531 "/>
</g>
</svg>
