<?xml version="1.0" encoding="UTF-8"?>
<svg xmlns="http://www.w3.org/2000/svg" xmlns:xlink="http://www.w3.org/1999/xlink" width="195px" height="98px" viewBox="0 0 196 98" version="1.1">
<g id="surface1">
<rect x="0" y="0" width="196" height="98" style="fill:rgb(94.117647%,49.803922%,7.45098%);fill-opacity:1;stroke:none;"/>
<path style="fill:none;stroke-width:1;stroke-linecap:butt;stroke-linejoin:miter;stroke:rgb(0%,0%,0%);stroke-opacity:1;stroke-miterlimit:10;" d="M 0 0 L 2000 0 L 2000 1000 L 0 1000 Z M 0 0 " transform="matrix(0.098,0,0,0.098,0,0)"/>
<path style=" stroke:none;fill-rule:nonzero;fill:rgb(100%,100%,100%);fill-opacity:1;" d="M 32.847656 35.886719 L 32.847656 59.152344 L 47.339844 59.152344 L 47.339844 64.0625 L 27.535156 64.0625 L 27.535156 35.886719 Z M 71.085938 58.75 L 56.351562 58.75 L 53.9375 64.0625 L 48.183594 64.0625 L 60.820312 35.886719 L 66.617188 35.886719 L 79.253906 64.0625 L 73.457031 64.0625 Z M 63.71875 41.804688 L 58.488281 53.800781 L 68.949219 53.800781 Z M 100.179688 35.847656 L 105.492188 35.847656 L 105.492188 64.0625 L 102.195312 64.0625 L 102.195312 64.101562 L 87.382812 45.066406 L 87.382812 64.0625 L 82.070312 64.0625 L 82.070312 35.886719 L 86.375 35.886719 L 100.179688 53.355469 Z M 131.292969 42.769531 C 129.398438 40.960938 126.582031 39.953125 124.128906 39.953125 C 118.089844 39.953125 114.429688 44.542969 114.429688 50.335938 C 114.429688 54.964844 117.125 59.753906 124.128906 59.753906 C 126.339844 59.753906 128.273438 59.273438 130.488281 57.5 L 130.488281 52.511719 L 123.28125 52.511719 L 123.28125 47.761719 L 135.359375 47.761719 L 135.359375 59.632812 C 132.582031 62.8125 129.078125 64.707031 124.128906 64.707031 C 113.542969 64.707031 109.238281 57.742188 109.238281 50.335938 C 109.238281 42.40625 114.1875 35.082031 124.128906 35.082031 C 127.910156 35.082031 131.695312 36.53125 134.59375 39.390625 Z M 159.703125 58.75 L 144.972656 58.75 L 142.558594 64.0625 L 136.804688 64.0625 L 149.441406 35.886719 L 155.238281 35.886719 L 167.875 64.0625 L 162.082031 64.0625 Z M 152.339844 41.804688 L 147.105469 53.800781 L 157.570312 53.800781 Z M 152.339844 41.804688 "/>
</g>
</svg>
