<?xml version="1.0" encoding="UTF-8"?>
<svg xmlns="http://www.w3.org/2000/svg" xmlns:xlink="http://www.w3.org/1999/xlink" width="105pt" height="90pt" viewBox="0 0 105 90" version="1.1">
<g id="surface1">
<path style=" stroke:none;fill-rule:nonzero;fill:rgb(86.27451%,10.980392%,18.039216%);fill-opacity:1;" d="M 14.238281 42.625 L 14.238281 42.503906 C 14.238281 40.980469 13.6875 39.691406 12.59375 38.808594 C 11.363281 37.8125 9.511719 37.285156 7.324219 37.285156 L 0 37.285156 L 0 53.183594 L 4.175781 53.183594 L 4.175781 48.019531 L 6.570312 48.019531 L 10.128906 53.183594 L 14.851562 53.183594 L 10.746094 47.316406 C 12.320312 46.671875 14.238281 45.382812 14.238281 42.625 Z M 10.0625 42.683594 C 10.0625 44.148438 8.898438 45.03125 6.980469 45.03125 L 4.175781 45.03125 L 4.175781 40.394531 L 6.980469 40.394531 C 8.96875 40.394531 10.0625 41.15625 10.0625 42.683594 Z M 72.898438 37.226562 L 65.917969 53.1875 L 70.089844 53.1875 L 71.527344 49.78125 L 78.03125 49.78125 L 79.46875 53.1875 L 83.78125 53.1875 L 76.800781 37.226562 Z M 76.730469 46.789062 L 72.757812 46.789062 L 74.746094 41.921875 Z M 95.898438 45.085938 L 101.441406 37.34375 L 96.855469 37.34375 L 93.570312 42.386719 L 90.351562 37.34375 L 85.5625 37.34375 L 91.035156 45.144531 L 85.289062 53.242188 L 89.875 53.242188 L 93.363281 47.902344 L 96.855469 53.242188 L 101.578125 53.242188 Z M 22.792969 50.132812 L 22.792969 46.730469 L 30.253906 46.730469 L 30.253906 43.679688 L 22.792969 43.679688 L 22.792969 40.394531 L 31.210938 40.394531 L 31.210938 37.285156 L 18.6875 37.285156 L 18.6875 53.183594 L 26.488281 53.183594 L 28.40625 50.132812 Z M 58.386719 37.285156 L 54.210938 42.449219 L 49.96875 37.285156 L 49.898438 37.285156 L 45.65625 44.210938 L 45.65625 53.1875 L 49.695312 53.1875 L 49.695312 43.328125 L 54.074219 48.199219 L 54.074219 48.257812 L 54.28125 48.257812 L 58.726562 43.328125 L 58.726562 53.1875 L 62.765625 53.1875 L 62.765625 37.285156 Z M 58.386719 37.285156 "/>
<path style=" stroke:none;fill-rule:nonzero;fill:rgb(0%,23.921569%,64.705882%);fill-opacity:1;" d="M 40.519531 37.285156 L 30.734375 53.183594 L 35.796875 53.183594 L 45.585938 37.285156 Z M 40.519531 37.285156 "/>
<path style=" stroke:none;fill-rule:nonzero;fill:rgb(86.27451%,10.980392%,18.039216%);fill-opacity:1;" d="M 103.628906 36.757812 C 102.878906 36.757812 102.261719 37.285156 102.261719 37.933594 C 102.261719 38.578125 102.875 39.105469 103.628906 39.105469 C 104.382812 39.105469 105 38.578125 105 37.933594 C 105 37.285156 104.382812 36.757812 103.628906 36.757812 Z M 103.628906 38.929688 C 103.011719 38.929688 102.535156 38.515625 102.535156 37.933594 C 102.535156 37.402344 103.015625 36.933594 103.628906 36.933594 C 104.246094 36.933594 104.726562 37.40625 104.726562 37.933594 C 104.726562 38.457031 104.246094 38.929688 103.628906 38.929688 Z M 103.90625 37.988281 C 104.042969 37.929688 104.179688 37.8125 104.179688 37.636719 C 104.179688 37.519531 104.113281 37.402344 104.042969 37.34375 C 103.976562 37.28125 103.769531 37.226562 103.5625 37.226562 C 103.355469 37.226562 103.21875 37.226562 103.152344 37.285156 L 103.152344 38.574219 L 103.425781 38.574219 L 103.425781 37.988281 L 103.632812 37.988281 C 103.835938 37.988281 103.90625 38.046875 103.976562 38.222656 C 103.976562 38.398438 104.042969 38.515625 104.113281 38.574219 L 104.382812 38.574219 C 104.382812 38.515625 104.316406 38.457031 104.316406 38.28125 C 104.109375 38.105469 104.042969 37.988281 103.90625 37.988281 Z M 103.5625 37.871094 L 103.355469 37.871094 L 103.355469 37.460938 C 103.425781 37.460938 103.425781 37.460938 103.5625 37.460938 C 103.835938 37.460938 103.972656 37.578125 103.972656 37.695312 C 103.90625 37.8125 103.765625 37.871094 103.5625 37.871094 Z M 103.5625 37.871094 "/>
</g>
</svg>
