<?xml version="1.0" encoding="UTF-8"?>
<svg xmlns="http://www.w3.org/2000/svg" xmlns:xlink="http://www.w3.org/1999/xlink" width="90px" height="90px" viewBox="0 0 90 89" version="1.1">
<g id="surface1">
<path style=" stroke:none;fill-rule:nonzero;fill:rgb(100%,100%,100%);fill-opacity:1;" d="M 45.089844 89 C 44.527344 89 43.972656 88.964844 43.53125 88.90625 L 43.054688 88.832031 L 42.742188 88.410156 L 42.714844 88.371094 C 41.65625 86.585938 40.980469 84.320312 40.8125 82.054688 C 40.667969 82.039062 40.5 82.015625 40.316406 81.992188 C 40.011719 81.949219 39.621094 81.898438 39.292969 81.855469 C 38.566406 83.984375 37.328125 86 35.828125 87.464844 L 35.421875 87.84375 L 34.871094 87.769531 C 33.984375 87.640625 32.789062 87.304688 31.90625 86.945312 L 31.878906 86.9375 L 31.457031 86.730469 L 31.285156 86.285156 L 31.269531 86.253906 C 30.929688 85.121094 30.75 83.851562 30.75 82.582031 C 30.75 81.628906 30.855469 80.652344 31.0625 79.664062 C 30.933594 79.609375 30.0625 79.257812 29.832031 79.164062 C 28.535156 81.085938 26.796875 82.722656 24.972656 83.726562 L 24.570312 83.953125 L 24.035156 83.8125 L 23.972656 83.785156 C 23.109375 83.402344 22.011719 82.773438 21.316406 82.257812 L 21.265625 82.222656 L 20.886719 81.84375 L 20.886719 81.257812 C 20.886719 79.222656 21.433594 77.011719 22.433594 74.964844 C 22.027344 74.65625 21.621094 74.355469 21.214844 74.046875 C 19.5 75.527344 17.40625 76.644531 15.375 77.167969 L 14.890625 77.308594 L 14.394531 76.988281 L 14.363281 76.960938 C 13.664062 76.402344 12.785156 75.53125 12.226562 74.828125 L 12.191406 74.789062 L 11.890625 74.304688 L 12.03125 73.832031 C 12.566406 71.828125 13.707031 69.765625 15.207031 68.078125 C 15.109375 67.945312 14.46875 67.125 14.292969 66.894531 C 12.292969 67.875 10.066406 68.429688 8.078125 68.429688 C 7.992188 68.429688 7.90625 68.429688 7.820312 68.425781 L 7.359375 68.425781 L 6.980469 68.058594 L 6.941406 68.011719 C 6.417969 67.324219 5.769531 66.210938 5.394531 65.355469 L 5.191406 64.878906 L 5.421875 64.398438 L 5.441406 64.371094 C 6.476562 62.578125 8.121094 60.875 10.019531 59.613281 C 9.835938 59.1875 9.648438 58.753906 9.460938 58.324219 C 8.449219 58.523438 7.417969 58.625 6.390625 58.625 C 5.105469 58.625 3.894531 58.46875 2.777344 58.15625 L 2.34375 58.023438 L 2.070312 57.597656 L 2.039062 57.519531 C 1.730469 56.769531 1.394531 55.511719 1.253906 54.59375 L 1.167969 54.109375 L 1.503906 53.667969 L 1.546875 53.628906 C 3.023438 52.140625 5.027344 50.925781 7.238281 50.167969 C 7.195312 49.839844 7.140625 49.453125 7.09375 49.144531 L 7.027344 48.660156 C 4.675781 48.515625 2.414062 47.871094 0.605469 46.804688 L 0.574219 46.78125 L 0.113281 46.488281 L 0.078125 45.957031 C 0.0273438 45.582031 0.00390625 45.105469 0.00390625 44.457031 C 0.00390625 43.832031 0.0273438 43.355469 0.078125 42.957031 L 0.117188 42.375 L 0.621094 42.105469 C 2.457031 41.042969 4.707031 40.394531 7.027344 40.246094 C 7.085938 39.816406 7.15625 39.261719 7.210938 38.832031 C 5.042969 38.09375 2.996094 36.863281 1.515625 35.390625 L 1.488281 35.363281 L 1.140625 34.949219 L 1.226562 34.457031 C 1.335938 33.5625 1.667969 32.351562 2.03125 31.535156 L 2.195312 31.039062 L 2.753906 30.878906 C 3.863281 30.558594 5.09375 30.394531 6.398438 30.394531 C 7.410156 30.394531 8.429688 30.492188 9.429688 30.683594 C 9.558594 30.371094 9.738281 29.949219 9.964844 29.414062 C 8.027344 28.125 6.375 26.414062 5.363281 24.632812 L 5.34375 24.601562 L 5.101562 24.082031 L 5.332031 23.613281 C 5.683594 22.816406 6.320312 21.738281 6.835938 21.039062 L 7.195312 20.582031 L 7.753906 20.582031 C 7.792969 20.582031 7.847656 20.582031 7.898438 20.582031 C 9.957031 20.582031 12.167969 21.125 14.210938 22.125 C 14.503906 21.738281 14.882812 21.238281 15.140625 20.894531 C 13.605469 19.15625 12.488281 17.117188 11.972656 15.078125 L 11.871094 14.695312 L 12.09375 14.222656 L 12.15625 14.140625 C 12.714844 13.453125 13.640625 12.546875 14.351562 11.988281 L 14.394531 11.953125 L 14.835938 11.691406 L 15.3125 11.785156 C 17.339844 12.296875 19.441406 13.429688 21.175781 14.9375 C 21.492188 14.691406 21.878906 14.398438 22.199219 14.15625 C 21.191406 12.179688 20.625 9.949219 20.625 7.925781 L 20.625 7.164062 L 21.085938 6.839844 C 21.757812 6.324219 22.851562 5.699219 23.679688 5.359375 L 24.089844 5.09375 L 24.691406 5.359375 L 24.726562 5.375 C 26.53125 6.382812 28.253906 8.007812 29.550781 9.902344 C 29.855469 9.773438 30.847656 9.355469 30.996094 9.289062 C 30.78125 8.246094 30.675781 7.257812 30.691406 6.332031 C 30.691406 5.054688 30.851562 3.851562 31.171875 2.761719 L 31.25 2.121094 L 31.882812 1.953125 C 32.648438 1.644531 33.871094 1.320312 34.765625 1.179688 L 35.308594 1.113281 L 35.71875 1.464844 L 35.738281 1.484375 C 37.238281 2.925781 38.488281 4.953125 39.234375 7.128906 C 39.695312 7.074219 40.277344 6.996094 40.730469 6.941406 C 40.894531 4.675781 41.574219 2.425781 42.636719 0.660156 L 42.839844 0.242188 L 43.410156 0.0898438 L 43.472656 0.0820312 C 43.910156 0.0273438 44.453125 0 45.019531 0 C 45.578125 0 46.117188 0.0273438 46.542969 0.0820312 L 46.617188 0.0898438 L 47.097656 0.230469 L 47.347656 0.601562 L 47.355469 0.621094 C 48.460938 2.425781 49.140625 4.6875 49.269531 6.929688 C 49.710938 6.992188 50.28125 7.070312 50.738281 7.128906 C 51.5 4.933594 52.726562 2.964844 54.230469 1.511719 L 54.664062 1.050781 L 55.21875 1.222656 C 56.128906 1.332031 57.316406 1.648438 58.148438 2.003906 L 58.625 2.1875 L 58.789062 2.726562 C 59.125 3.832031 59.300781 5.054688 59.300781 6.347656 C 59.285156 7.324219 59.171875 8.3125 58.964844 9.3125 C 59.402344 9.488281 59.953125 9.714844 60.398438 9.898438 C 61.675781 8 63.359375 6.410156 65.203125 5.375 L 65.234375 5.363281 L 65.714844 5.113281 L 66.207031 5.332031 C 67.050781 5.6875 68.140625 6.316406 68.824219 6.839844 L 69.292969 7.132812 L 69.292969 7.902344 C 69.292969 9.925781 68.730469 12.164062 67.730469 14.15625 L 68.902344 15.0625 C 70.613281 13.578125 72.675781 12.460938 74.660156 11.953125 L 75.253906 11.636719 L 75.761719 12.167969 C 76.496094 12.71875 77.367188 13.640625 77.851562 14.261719 L 78.285156 14.707031 L 78.078125 15.289062 C 77.566406 17.261719 76.417969 19.324219 74.894531 21.046875 C 75.164062 21.402344 75.503906 21.84375 75.773438 22.195312 C 77.839844 21.214844 80.050781 20.679688 82.078125 20.679688 C 82.148438 20.679688 82.210938 20.679688 82.277344 20.679688 L 82.8125 20.679688 L 83.136719 21.117188 C 83.691406 21.820312 84.328125 22.902344 84.667969 23.707031 L 84.960938 24.269531 L 84.613281 24.773438 C 83.578125 26.554688 81.964844 28.210938 80.035156 29.496094 C 80.214844 29.925781 80.390625 30.351562 80.574219 30.78125 C 81.574219 30.582031 82.597656 30.480469 83.621094 30.480469 C 84.894531 30.480469 86.09375 30.636719 87.1875 30.941406 L 87.746094 31.046875 L 87.972656 31.605469 C 88.269531 32.34375 88.640625 33.589844 88.765625 34.546875 L 88.855469 35.078125 L 88.453125 35.472656 C 87.011719 36.953125 84.96875 38.1875 82.773438 38.925781 L 82.804688 39.183594 C 82.855469 39.542969 82.910156 39.976562 82.960938 40.332031 C 85.289062 40.488281 87.535156 41.144531 89.351562 42.210938 L 89.84375 42.496094 L 89.910156 43.027344 C 89.96875 43.449219 89.996094 43.964844 89.996094 44.554688 C 89.996094 44.964844 89.980469 45.566406 89.90625 46.101562 L 89.832031 46.65625 L 89.328125 46.910156 C 87.535156 47.957031 85.292969 48.613281 82.941406 48.785156 C 82.890625 49.144531 82.839844 49.582031 82.796875 49.902344 C 82.789062 49.976562 82.78125 50.054688 82.769531 50.125 C 84.960938 50.871094 87 52.097656 88.429688 53.570312 L 88.496094 53.632812 L 88.742188 54.015625 L 88.742188 54.425781 L 88.734375 54.488281 C 88.597656 55.445312 88.265625 56.644531 87.917969 57.425781 L 87.734375 58 L 87.140625 58.09375 C 86.035156 58.40625 84.832031 58.5625 83.558594 58.5625 C 82.550781 58.5625 81.535156 58.464844 80.535156 58.269531 C 80.398438 58.597656 80.183594 59.113281 80.019531 59.519531 C 81.984375 60.867188 83.617188 62.589844 84.558594 64.324219 L 84.78125 64.761719 L 84.632812 65.242188 L 84.613281 65.285156 C 84.292969 66.03125 83.691406 67.15625 83.089844 67.898438 L 82.8125 68.367188 L 82.175781 68.367188 L 82.054688 68.371094 C 79.976562 68.371094 77.75 67.828125 75.714844 66.835938 L 74.8125 68.015625 C 76.339844 69.742188 77.46875 71.816406 77.960938 73.816406 L 78.117188 74.34375 L 77.777344 74.757812 C 77.230469 75.484375 76.289062 76.390625 75.625 76.921875 L 75.234375 77.25 L 74.628906 77.136719 L 74.601562 77.125 C 72.574219 76.589844 70.484375 75.460938 68.769531 73.984375 L 67.671875 74.832031 C 68.679688 76.875 69.230469 79.066406 69.230469 81.0625 L 69.230469 81.859375 L 68.71875 82.148438 C 68.019531 82.691406 66.917969 83.324219 66.074219 83.667969 L 65.707031 83.820312 L 65.179688 83.652344 L 65.097656 83.605469 C 63.277344 82.554688 61.554688 80.929688 60.292969 79.074219 C 59.835938 79.265625 59.382812 79.460938 58.925781 79.652344 C 59.132812 80.621094 59.25 81.601562 59.285156 82.589844 L 59.285156 82.617188 C 59.285156 83.742188 59.113281 84.949219 58.769531 86.207031 L 58.703125 86.6875 L 58.15625 86.980469 L 58.117188 87 C 57.3125 87.328125 56.027344 87.636719 55.175781 87.785156 L 54.519531 87.871094 L 54.175781 87.445312 C 52.664062 86 51.441406 84.039062 50.695312 81.855469 C 50.285156 81.910156 49.769531 81.980469 49.355469 82.039062 C 49.199219 84.320312 48.511719 86.597656 47.421875 88.378906 L 47.132812 88.839844 L 46.605469 88.90625 C 46.191406 88.964844 45.652344 89 45.089844 89 Z M 45.089844 89 "/>
<path style=" stroke:none;fill-rule:nonzero;fill:rgb(99.607843%,74.117647%,6.666667%);fill-opacity:1;" d="M 25.945312 66.777344 L 23 70.226562 L 22.085938 69.441406 L 25.128906 66.089844 C 24.644531 65.648438 24.277344 65.253906 23.8125 64.839844 L 24.488281 64.167969 C 25.644531 65.253906 26.664062 66.089844 27.945312 67.105469 L 27.359375 67.847656 C 26.890625 67.484375 26.414062 67.140625 25.945312 66.777344 Z M 20.042969 58.1875 L 15.269531 60.941406 C 15.445312 61.277344 15.625 61.664062 15.839844 61.980469 L 20.621094 59.21875 C 20.386719 58.804688 20.253906 58.582031 20.042969 58.1875 Z M 23.109375 62.589844 L 20.527344 64.796875 L 21.84375 61.011719 C 21.609375 60.6875 21.5 60.460938 21.257812 60.164062 L 16.621094 63.273438 C 16.828125 63.582031 17.082031 63.867188 17.304688 64.183594 L 20.089844 62.273438 L 18.78125 66.089844 C 19.011719 66.339844 19.238281 66.726562 19.558594 66.984375 L 23.84375 63.347656 C 23.609375 63.09375 23.320312 62.871094 23.109375 62.589844 Z M 29.402344 69.363281 C 30.152344 69.765625 30.890625 70.191406 31.710938 70.574219 L 32.207031 69.765625 C 31.066406 69.183594 29.996094 68.519531 29.035156 67.859375 L 25.890625 72.429688 C 27.082031 73.207031 28.175781 73.859375 29.402344 74.558594 L 29.910156 73.753906 L 27.371094 72.277344 L 28.230469 71.085938 L 29.910156 72.085938 L 30.398438 71.308594 C 29.855469 71.015625 29.296875 70.675781 28.707031 70.320312 Z M 44.960938 52.339844 C 40.613281 52.339844 37.0625 48.816406 37.0625 44.523438 C 37.0625 40.203125 40.613281 36.691406 44.960938 36.691406 C 49.335938 36.691406 52.855469 40.203125 52.855469 44.523438 C 52.855469 48.832031 49.316406 52.339844 44.960938 52.339844 Z M 45.058594 49.753906 C 47.941406 49.753906 50.3125 47.410156 50.3125 44.554688 C 50.3125 42.183594 48.644531 40.117188 46.351562 39.550781 C 46.320312 39.320312 46.257812 38.238281 46.257812 38.238281 L 43.605469 38.238281 C 43.605469 38.238281 43.542969 39.414062 43.527344 39.644531 C 41.320312 40.308594 39.839844 42.292969 39.839844 44.554688 C 39.839844 47.410156 42.210938 49.753906 45.058594 49.753906 Z M 33.449219 15 L 33.449219 14.746094 C 33.417969 13.328125 34.515625 12.164062 35.953125 12.046875 C 37.476562 11.902344 38.828125 13.011719 38.957031 14.527344 L 38.957031 14.746094 C 38.960938 16.175781 37.855469 17.371094 36.414062 17.496094 C 34.933594 17.625 33.574219 16.523438 33.449219 15 Z M 34.457031 14.898438 C 34.535156 15.875 35.402344 16.585938 36.355469 16.503906 C 37.289062 16.410156 37.988281 15.671875 37.988281 14.746094 C 38.019531 14.695312 37.988281 14.640625 37.988281 14.578125 C 37.90625 13.601562 37.054688 12.917969 36.066406 13.011719 C 35.128906 13.078125 34.421875 13.8125 34.457031 14.746094 Z M 45.96875 16.253906 C 45.503906 16.25 45.289062 16.25 44.832031 16.25 L 46.207031 13.425781 L 47.460938 10.859375 L 48.699219 10.980469 L 49.355469 13.425781 L 50.25 16.707031 C 49.835938 16.625 49.511719 16.566406 49.121094 16.542969 L 48.796875 15.515625 C 47.980469 15.390625 47.234375 15.351562 46.476562 15.316406 Z M 46.886719 14.390625 C 47.488281 14.421875 48.050781 14.484375 48.613281 14.566406 L 48.316406 13.425781 L 47.941406 12.242188 L 47.382812 13.425781 Z M 41.378906 11.953125 L 41.867188 16.429688 L 43.058594 16.304688 L 42.59375 11.863281 L 44.386719 11.753906 L 44.320312 10.753906 C 42.3125 10.871094 41.484375 10.949219 39.496094 11.246094 L 39.632812 12.191406 Z M 41.566406 72.542969 L 41.164062 75.882812 L 39.542969 72.222656 C 39.160156 72.148438 38.925781 72.050781 38.542969 71.992188 L 37.265625 77.394531 C 37.65625 77.496094 38.035156 77.539062 38.445312 77.609375 L 39.128906 74.292969 L 40.773438 77.988281 C 41.144531 78.039062 41.566406 78.160156 42.003906 78.148438 L 42.609375 72.566406 C 42.292969 72.546875 41.914062 72.601562 41.566406 72.542969 Z M 73.65625 60.941406 L 69.597656 58.734375 L 69.078125 59.660156 L 73.945312 62.347656 L 75.824219 59.019531 L 74.988281 58.574219 Z M 67.535156 61.753906 L 73.0625 63.546875 C 72.929688 63.710938 72.828125 63.867188 72.710938 64.027344 C 72.617188 64.152344 72.503906 64.277344 72.425781 64.4375 L 71.457031 64.089844 L 69.953125 65.953125 L 70.5 66.808594 C 70.253906 67.085938 70 67.355469 69.734375 67.613281 L 67.546875 64.027344 L 66.738281 62.707031 Z M 68.164062 63.007812 L 68.820312 64.027344 L 69.421875 65.0625 L 70.226562 64.027344 L 70.4375 63.773438 Z M 62.355469 70.308594 C 62.597656 70.71875 62.707031 71.1875 62.726562 71.675781 C 62.726562 72.058594 62.644531 72.4375 62.488281 72.789062 C 62.230469 73.296875 61.847656 73.753906 61.316406 74.058594 C 60.019531 74.808594 58.339844 74.359375 57.550781 73.039062 C 57.519531 72.953125 57.484375 72.871094 57.441406 72.789062 C 57.277344 72.4375 57.207031 72.050781 57.167969 71.675781 C 57.207031 70.703125 57.683594 69.804688 58.5625 69.300781 C 59.878906 68.558594 61.582031 69 62.355469 70.308594 Z M 61.734375 71.671875 C 61.734375 71.34375 61.644531 71.050781 61.488281 70.765625 C 61.027344 69.917969 59.9375 69.648438 59.085938 70.128906 C 58.484375 70.445312 58.179688 71.050781 58.179688 71.671875 C 58.203125 71.957031 58.269531 72.277344 58.441406 72.542969 C 58.488281 72.636719 58.558594 72.726562 58.628906 72.808594 C 59.167969 73.441406 60.105469 73.585938 60.828125 73.167969 C 61.015625 73.078125 61.175781 72.957031 61.316406 72.808594 C 61.582031 72.492188 61.734375 72.0625 61.734375 71.671875 Z M 64.398438 65.144531 L 66.699219 67.597656 L 62.839844 66.46875 C 62.519531 66.710938 62.304688 66.792969 62.019531 67.039062 L 65.378906 71.5 C 65.664062 71.28125 65.964844 71.015625 66.230469 70.789062 L 64.191406 68.101562 L 68.085938 69.265625 C 68.355469 69.03125 68.738281 68.773438 69 68.449219 L 65.117188 64.382812 C 64.910156 64.605469 64.667969 64.898438 64.398438 65.144531 Z M 89.121094 44.554688 C 89.121094 45.066406 89.09375 45.574219 89.039062 45.984375 L 89.027344 46.089844 L 88.90625 46.152344 C 87.023438 47.257812 84.605469 47.886719 82.171875 47.953125 C 82.117188 48.257812 81.851562 50.429688 81.804688 50.734375 C 84.074219 51.382812 86.273438 52.609375 87.804688 54.171875 L 87.863281 54.269531 L 87.863281 54.367188 C 87.746094 55.222656 87.441406 56.371094 87.097656 57.113281 L 87.0625 57.230469 L 86.949219 57.246094 C 84.824219 57.855469 82.320312 57.832031 80.003906 57.265625 C 79.890625 57.550781 79.039062 59.566406 78.949219 59.859375 C 80.980469 61.128906 82.773438 62.871094 83.785156 64.734375 L 83.839844 64.84375 L 83.800781 64.949219 C 83.488281 65.6875 82.898438 66.761719 82.363281 67.40625 L 82.304688 67.503906 L 82.171875 67.503906 C 80.003906 67.53125 77.578125 66.894531 75.464844 65.726562 C 75.269531 65.972656 73.859375 67.820312 73.671875 68.070312 C 75.332031 69.765625 76.601562 71.921875 77.109375 74.042969 L 77.144531 74.152344 L 77.082031 74.230469 C 76.59375 74.878906 75.707031 75.738281 75.0625 76.257812 L 74.988281 76.320312 L 74.824219 76.289062 C 72.742188 75.738281 70.535156 74.492188 68.820312 72.851562 C 68.5625 73.039062 66.816406 74.394531 66.554688 74.585938 C 67.675781 76.613281 68.355469 78.949219 68.355469 81.0625 L 68.355469 81.355469 L 68.226562 81.425781 C 67.582031 81.941406 66.503906 82.554688 65.738281 82.867188 L 65.664062 82.898438 L 65.535156 82.859375 C 63.65625 81.773438 61.855469 80.011719 60.625 77.988281 C 60.328125 78.117188 58.195312 79.015625 57.910156 79.144531 C 58.195312 80.273438 58.371094 81.449219 58.40625 82.613281 C 58.40625 83.789062 58.195312 84.964844 57.910156 86.03125 L 57.894531 86.136719 L 57.777344 86.195312 C 57.066406 86.492188 55.863281 86.785156 55.023438 86.933594 L 54.894531 86.949219 L 54.824219 86.859375 C 53.207031 85.335938 51.96875 83.171875 51.316406 80.910156 C 51.027344 80.933594 48.820312 81.226562 48.511719 81.289062 C 48.46875 83.664062 47.8125 86.066406 46.671875 87.933594 L 46.609375 88.03125 L 46.476562 88.046875 C 45.710938 88.160156 44.484375 88.160156 43.648438 88.046875 L 43.542969 88.03125 L 43.472656 87.933594 C 42.367188 86.066406 41.707031 83.664062 41.652344 81.289062 C 41.320312 81.257812 38.996094 80.933594 38.675781 80.910156 C 38.035156 83.15625 36.789062 85.308594 35.214844 86.851562 L 35.128906 86.933594 L 35 86.910156 C 34.136719 86.785156 33 86.460938 32.238281 86.148438 L 32.148438 86.101562 L 32.109375 86.003906 C 31.789062 84.949219 31.621094 83.757812 31.621094 82.582031 C 31.621094 81.425781 31.789062 80.273438 32.085938 79.144531 C 31.789062 79.015625 29.777344 78.210938 29.484375 78.085938 C 28.242188 80.140625 26.449219 81.925781 24.550781 82.96875 L 24.453125 83.027344 L 24.328125 82.992188 C 23.546875 82.648438 22.507812 82.058594 21.84375 81.566406 L 21.761719 81.480469 L 21.761719 81.257812 C 21.761719 79.121094 22.417969 76.769531 23.546875 74.714844 C 22.753906 74.113281 21.960938 73.515625 21.160156 72.921875 C 19.445312 74.558594 17.253906 75.792969 15.140625 76.332031 L 15.027344 76.363281 L 14.914062 76.289062 C 14.265625 75.769531 13.4375 74.941406 12.914062 74.292969 L 12.839844 74.175781 L 12.871094 74.0625 C 13.4375 71.957031 14.703125 69.804688 16.347656 68.132812 C 16.160156 67.878906 14.738281 66.058594 14.539062 65.78125 C 12.449219 66.945312 10 67.613281 7.832031 67.5625 L 7.714844 67.5625 L 7.640625 67.484375 C 7.136719 66.820312 6.527344 65.761719 6.199219 65.011719 L 6.152344 64.898438 L 6.199219 64.796875 C 7.292969 62.90625 9.078125 61.160156 11.113281 59.953125 C 10.984375 59.640625 10.113281 57.613281 9.964844 57.324219 C 7.648438 57.894531 5.132812 57.910156 3.011719 57.324219 L 2.910156 57.292969 L 2.847656 57.199219 C 2.558594 56.488281 2.246094 55.300781 2.117188 54.464844 L 2.097656 54.332031 L 2.167969 54.234375 C 3.714844 52.679688 5.878906 51.449219 8.199219 50.769531 C 8.171875 50.449219 7.832031 48.140625 7.796875 47.820312 C 5.378906 47.789062 2.941406 47.167969 1.054688 46.058594 L 0.957031 45.996094 L 0.945312 45.867188 C 0.890625 45.480469 0.878906 44.972656 0.878906 44.457031 C 0.878906 43.957031 0.890625 43.460938 0.945312 43.042969 L 0.957031 42.914062 L 1.054688 42.863281 C 2.941406 41.757812 5.378906 41.121094 7.796875 41.085938 C 7.847656 40.769531 8.136719 38.523438 8.171875 38.21875 C 5.878906 37.570312 3.691406 36.324219 2.136719 34.777344 L 2.074219 34.703125 L 2.097656 34.582031 C 2.195312 33.71875 2.523438 32.5625 2.847656 31.851562 L 2.882812 31.742188 L 2.996094 31.710938 C 5.089844 31.101562 7.621094 31.121094 9.949219 31.6875 C 10.078125 31.40625 10.925781 29.378906 11.050781 29.074219 C 9 27.84375 7.199219 26.097656 6.125 24.207031 L 6.070312 24.085938 L 6.125 23.976562 C 6.464844 23.21875 7.066406 22.191406 7.546875 21.546875 L 7.621094 21.449219 L 7.753906 21.449219 C 9.949219 21.421875 12.371094 22.082031 14.460938 23.226562 C 14.652344 22.996094 16.082031 21.089844 16.277344 20.835938 C 14.617188 19.125 13.363281 16.984375 12.824219 14.863281 L 12.796875 14.777344 L 12.839844 14.683594 C 13.371094 14.023438 14.25 13.171875 14.894531 12.667969 L 15 12.605469 L 15.09375 12.621094 C 17.253906 13.171875 19.429688 14.441406 21.125 16.066406 C 21.375 15.875 23.066406 14.578125 23.320312 14.390625 C 22.152344 12.371094 21.5 10.019531 21.5 7.925781 L 21.5 7.609375 L 21.609375 7.535156 C 22.242188 7.042969 23.320312 6.433594 24.085938 6.125 L 24.167969 6.074219 L 24.296875 6.128906 C 26.1875 7.183594 27.96875 8.953125 29.210938 10.980469 C 29.507812 10.871094 31.710938 9.921875 32.015625 9.804688 C 31.726562 8.671875 31.546875 7.503906 31.5625 6.347656 C 31.5625 5.140625 31.710938 3.992188 32.03125 2.9375 L 32.050781 2.804688 L 32.164062 2.777344 C 32.875 2.476562 34.066406 2.167969 34.898438 2.035156 L 35.03125 2.019531 L 35.128906 2.105469 C 36.703125 3.621094 37.957031 5.785156 38.617188 8.070312 C 38.941406 8.035156 41.257812 7.75 41.570312 7.691406 C 41.621094 5.339844 42.273438 2.9375 43.410156 1.070312 L 43.457031 0.972656 L 43.574219 0.9375 C 44.410156 0.84375 45.632812 0.84375 46.4375 0.9375 L 46.542969 0.972656 L 46.609375 1.070312 C 47.753906 2.9375 48.410156 5.339844 48.410156 7.671875 C 48.761719 7.75 51.027344 8.035156 51.351562 8.070312 C 52.027344 5.785156 53.273438 3.632812 54.855469 2.113281 L 54.929688 2.035156 L 55.039062 2.066406 C 55.898438 2.167969 57.066406 2.476562 57.820312 2.804688 L 57.910156 2.839844 L 57.945312 2.96875 C 58.269531 4.015625 58.425781 5.160156 58.425781 6.347656 C 58.40625 7.515625 58.234375 8.695312 57.945312 9.828125 C 58.234375 9.945312 60.4375 10.851562 60.742188 10.980469 C 61.964844 8.953125 63.722656 7.203125 65.628906 6.128906 L 65.742188 6.074219 L 65.855469 6.125 C 66.613281 6.445312 67.671875 7.046875 68.320312 7.550781 L 68.417969 7.613281 L 68.417969 7.902344 C 68.417969 10.050781 67.746094 12.394531 66.613281 14.390625 C 66.855469 14.578125 68.675781 15.988281 68.953125 16.195312 C 70.664062 14.546875 72.839844 13.292969 74.988281 12.769531 L 75.082031 12.714844 L 75.179688 12.8125 C 75.824219 13.292969 76.695312 14.1875 77.191406 14.828125 L 77.28125 14.921875 L 77.238281 15.035156 C 76.695312 17.15625 75.402344 19.308594 73.757812 20.992188 C 73.949219 21.25 75.316406 23.035156 75.527344 23.292969 C 77.664062 22.15625 80.074219 21.511719 82.265625 21.546875 L 82.363281 21.546875 L 82.4375 21.644531 C 82.96875 22.3125 83.578125 23.355469 83.875 24.070312 L 83.941406 24.207031 L 83.875 24.3125 C 82.785156 26.1875 81 27.917969 78.953125 29.160156 C 79.074219 29.464844 79.910156 31.5 80.066406 31.785156 C 82.363281 31.207031 84.894531 31.195312 86.984375 31.785156 L 87.109375 31.804688 L 87.15625 31.925781 C 87.449219 32.644531 87.785156 33.816406 87.898438 34.671875 L 87.917969 34.777344 L 87.832031 34.863281 C 86.296875 36.4375 84.109375 37.671875 81.804688 38.3125 C 81.851562 38.625 82.140625 40.84375 82.195312 41.160156 C 84.613281 41.214844 87.03125 41.851562 88.90625 42.953125 L 89.027344 43.023438 L 89.039062 43.136719 C 89.09375 43.542969 89.121094 44.03125 89.121094 44.554688 Z M 22.824219 19.097656 L 26.449219 23.09375 C 26.953125 23.632812 27.511719 23.566406 28.242188 22.996094 C 32.824219 19.441406 38.699219 17.34375 44.960938 17.34375 C 51.230469 17.34375 57.105469 19.4375 61.734375 22.996094 C 62.457031 23.523438 62.996094 23.632812 63.527344 23.09375 L 67.152344 19.097656 C 67.566406 18.65625 67.566406 18.046875 66.777344 17.394531 C 60.699219 12.714844 53.199219 9.828125 44.945312 9.828125 C 36.746094 9.828125 29.132812 12.714844 23.164062 17.417969 C 22.382812 18.046875 22.417969 18.65625 22.824219 19.097656 Z M 23.066406 35.890625 C 22.671875 35.636719 22.242188 35.339844 21.894531 35.492188 C 21.613281 35.578125 21.40625 35.871094 21.257812 36.347656 C 19.558594 42.117188 19.558594 47.003906 21.257812 52.699219 C 21.375 53.070312 21.5 53.4375 21.84375 53.53125 C 22.121094 53.644531 22.53125 53.53125 23.066406 53.164062 L 34.289062 45.605469 C 34.707031 45.328125 34.957031 44.9375 34.957031 44.539062 C 34.957031 44.113281 34.707031 43.734375 34.289062 43.445312 Z M 25.523438 29.273438 C 25.574219 29.679688 26.039062 29.886719 26.449219 30.074219 L 38.675781 35.945312 C 39.160156 36.179688 39.613281 36.179688 39.984375 35.988281 C 40.324219 35.765625 40.546875 35.375 40.582031 34.863281 L 41.566406 21.453125 C 41.621094 20.800781 41.53125 20.421875 41.296875 20.222656 C 41.035156 20.003906 40.652344 20.066406 40.285156 20.132812 C 34.421875 21.527344 30.152344 23.976562 25.945312 28.316406 C 25.605469 28.695312 25.449219 29.015625 25.523438 29.273438 Z M 25.699219 59.945312 C 25.699219 60.175781 25.859375 60.460938 26.15625 60.765625 C 30.363281 65.144531 34.628906 67.582031 40.484375 68.941406 C 40.859375 69.054688 41.226562 69.109375 41.484375 68.90625 C 41.75 68.710938 41.828125 68.308594 41.78125 67.675781 C 41.78125 67.660156 40.785156 54.234375 40.785156 54.234375 C 40.746094 53.726562 40.546875 53.339844 40.1875 53.132812 C 39.824219 52.925781 39.371094 52.925781 38.878906 53.140625 L 26.667969 59.019531 C 26.242188 59.21875 25.78125 59.441406 25.714844 59.835938 C 25.714844 59.859375 25.699219 59.914062 25.699219 59.945312 Z M 44.960938 53.1875 C 49.796875 53.1875 53.726562 49.304688 53.726562 44.523438 C 53.726562 39.746094 49.796875 35.859375 44.960938 35.839844 C 40.128906 35.839844 36.199219 39.746094 36.199219 44.523438 C 36.199219 49.304688 40.128906 53.1875 44.960938 53.1875 Z M 48.667969 68.710938 C 48.871094 68.871094 49.214844 68.921875 49.738281 68.792969 C 55.578125 67.40625 59.859375 64.957031 64.035156 60.625 C 64.285156 60.339844 64.558594 60.046875 64.476562 59.722656 C 64.398438 59.410156 64.132812 59.128906 63.5625 58.859375 L 51.316406 52.988281 C 50.851562 52.769531 50.398438 52.769531 50.027344 52.960938 C 49.664062 53.1875 49.449219 53.566406 49.414062 54.097656 L 48.425781 67.503906 C 48.410156 67.941406 48.363281 68.445312 48.667969 68.710938 Z M 66.925781 53.089844 C 67.292969 53.320312 67.710938 53.605469 68.09375 53.472656 C 68.355469 53.394531 68.582031 53.109375 68.722656 52.609375 C 70.4375 46.859375 70.4375 41.949219 68.722656 36.273438 C 68.617188 35.914062 68.449219 35.546875 68.148438 35.410156 C 67.84375 35.304688 67.460938 35.429688 66.910156 35.800781 L 55.683594 43.351562 C 55.246094 43.640625 55.023438 44.03125 55.023438 44.4375 C 55.023438 44.84375 55.246094 45.238281 55.683594 45.519531 Z M 64.453125 29.058594 C 64.464844 28.828125 64.324219 28.539062 63.996094 28.222656 C 59.828125 23.859375 55.542969 21.421875 49.664062 20.039062 C 49.335938 19.953125 48.953125 19.875 48.699219 20.097656 C 48.4375 20.308594 48.363281 20.707031 48.410156 21.308594 L 49.382812 34.757812 C 49.414062 35.265625 49.648438 35.664062 49.988281 35.871094 C 50.367188 36.085938 50.8125 36.042969 51.289062 35.820312 L 63.527344 29.980469 C 63.921875 29.792969 64.367188 29.585938 64.453125 29.171875 C 64.453125 29.144531 64.464844 29.113281 64.453125 29.058594 Z M 12.179688 53.054688 L 17.390625 51.554688 C 17.875 51.414062 18.28125 50.90625 18.242188 50.277344 C 16.371094 40.679688 18.75 32.898438 24.4375 26.664062 C 25.011719 26.257812 25.074219 25.421875 24.523438 24.855469 L 20.734375 21.089844 C 20.367188 20.671875 19.695312 20.671875 19.125 21.25 C 11.863281 28.8125 8.199219 40.402344 10.886719 52.261719 C 11.035156 52.832031 11.488281 53.25 12.179688 53.054688 Z M 76.957031 55.808594 L 71.730469 54.046875 C 71.457031 53.945312 70.746094 53.945312 70.371094 54.855469 C 66.152344 64.859375 56.332031 71.707031 44.960938 71.707031 C 33.574219 71.707031 23.574219 64.699219 19.539062 54.699219 C 19.347656 54.167969 18.769531 53.878906 18.226562 54.046875 L 13.03125 55.808594 C 12.46875 56.007812 12.128906 56.507812 12.421875 57.21875 C 17.527344 70.097656 30.214844 79.183594 44.960938 79.183594 C 59.703125 79.183594 72.449219 70.035156 77.570312 57.164062 C 77.835938 56.496094 77.515625 56.011719 76.957031 55.808594 Z M 70.917969 21.203125 C 70.402344 20.582031 69.554688 20.671875 69.3125 21.105469 L 65.535156 24.855469 C 64.984375 25.421875 65.039062 26.257812 65.613281 26.664062 C 71.308594 32.898438 73.6875 40.664062 71.824219 50.277344 C 71.777344 50.90625 72.183594 51.414062 72.679688 51.554688 L 77.898438 53.054688 C 78.59375 53.25 79.039062 52.832031 79.1875 52.242188 C 81.875 40.402344 78.195312 28.769531 70.917969 21.203125 Z M 89.121094 44.554688 C 89.121094 45.066406 89.09375 45.574219 89.039062 45.984375 L 89.027344 46.089844 L 88.90625 46.152344 C 87.023438 47.257812 84.605469 47.886719 82.171875 47.953125 C 82.117188 48.257812 81.851562 50.429688 81.804688 50.734375 C 84.074219 51.382812 86.273438 52.609375 87.804688 54.171875 L 87.863281 54.269531 L 87.863281 54.367188 C 87.746094 55.222656 87.441406 56.371094 87.097656 57.113281 L 87.0625 57.230469 L 86.949219 57.246094 C 84.824219 57.855469 82.320312 57.832031 80.003906 57.265625 C 79.890625 57.550781 79.039062 59.566406 78.949219 59.859375 C 80.980469 61.128906 82.773438 62.871094 83.785156 64.734375 L 83.839844 64.84375 L 83.800781 64.949219 C 83.488281 65.6875 82.898438 66.761719 82.363281 67.40625 L 82.304688 67.503906 L 82.171875 67.503906 C 80.003906 67.53125 77.578125 66.894531 75.464844 65.726562 C 75.269531 65.972656 73.859375 67.820312 73.671875 68.070312 C 75.332031 69.765625 76.601562 71.921875 77.109375 74.042969 L 77.144531 74.152344 L 77.082031 74.230469 C 76.59375 74.878906 75.707031 75.738281 75.0625 76.257812 L 74.988281 76.320312 L 74.824219 76.289062 C 72.742188 75.738281 70.535156 74.492188 68.820312 72.851562 C 68.5625 73.039062 66.816406 74.394531 66.554688 74.585938 C 67.675781 76.613281 68.355469 78.949219 68.355469 81.0625 L 68.355469 81.355469 L 68.226562 81.425781 C 67.582031 81.941406 66.503906 82.554688 65.738281 82.867188 L 65.664062 82.898438 L 65.535156 82.859375 C 63.65625 81.773438 61.855469 80.011719 60.625 77.988281 C 60.328125 78.117188 58.195312 79.015625 57.910156 79.144531 C 58.195312 80.273438 58.371094 81.449219 58.40625 82.613281 C 58.40625 83.789062 58.195312 84.964844 57.910156 86.03125 L 57.894531 86.136719 L 57.777344 86.195312 C 57.066406 86.492188 55.863281 86.785156 55.023438 86.933594 L 54.894531 86.949219 L 54.824219 86.859375 C 53.207031 85.335938 51.96875 83.171875 51.316406 80.910156 C 51.027344 80.933594 48.820312 81.226562 48.511719 81.289062 C 48.46875 83.664062 47.8125 86.066406 46.671875 87.933594 L 46.609375 88.03125 L 46.476562 88.046875 C 45.710938 88.160156 44.484375 88.160156 43.648438 88.046875 L 43.542969 88.03125 L 43.472656 87.933594 C 42.367188 86.066406 41.707031 83.664062 41.652344 81.289062 C 41.320312 81.257812 38.996094 80.933594 38.675781 80.910156 C 38.035156 83.15625 36.789062 85.308594 35.214844 86.851562 L 35.128906 86.933594 L 35 86.910156 C 34.136719 86.785156 33 86.460938 32.238281 86.148438 L 32.148438 86.101562 L 32.109375 86.003906 C 31.789062 84.949219 31.621094 83.757812 31.621094 82.582031 C 31.621094 81.425781 31.789062 80.273438 32.085938 79.144531 C 31.789062 79.015625 29.777344 78.210938 29.484375 78.085938 C 28.242188 80.140625 26.449219 81.925781 24.550781 82.96875 L 24.453125 83.027344 L 24.328125 82.992188 C 23.546875 82.648438 22.507812 82.058594 21.84375 81.566406 L 21.761719 81.480469 L 21.761719 81.257812 C 21.761719 79.121094 22.417969 76.769531 23.546875 74.714844 C 22.753906 74.113281 21.960938 73.515625 21.160156 72.921875 C 19.445312 74.558594 17.253906 75.792969 15.140625 76.332031 L 15.027344 76.363281 L 14.914062 76.289062 C 14.265625 75.769531 13.4375 74.941406 12.914062 74.292969 L 12.839844 74.175781 L 12.871094 74.0625 C 13.4375 71.957031 14.703125 69.804688 16.347656 68.132812 C 16.160156 67.878906 14.738281 66.058594 14.539062 65.78125 C 12.449219 66.945312 10 67.613281 7.832031 67.5625 L 7.714844 67.5625 L 7.640625 67.484375 C 7.136719 66.820312 6.527344 65.761719 6.199219 65.011719 L 6.152344 64.898438 L 6.199219 64.796875 C 7.292969 62.90625 9.078125 61.160156 11.113281 59.953125 C 10.984375 59.640625 10.113281 57.613281 9.964844 57.324219 C 7.648438 57.894531 5.132812 57.910156 3.011719 57.324219 L 2.910156 57.292969 L 2.847656 57.199219 C 2.558594 56.488281 2.246094 55.300781 2.117188 54.464844 L 2.097656 54.332031 L 2.167969 54.234375 C 3.714844 52.679688 5.878906 51.449219 8.199219 50.769531 C 8.171875 50.449219 7.832031 48.140625 7.796875 47.820312 C 5.378906 47.789062 2.941406 47.167969 1.054688 46.058594 L 0.957031 45.996094 L 0.945312 45.867188 C 0.890625 45.480469 0.878906 44.972656 0.878906 44.457031 C 0.878906 43.957031 0.890625 43.460938 0.945312 43.042969 L 0.957031 42.914062 L 1.054688 42.863281 C 2.941406 41.757812 5.378906 41.121094 7.796875 41.085938 C 7.847656 40.769531 8.136719 38.523438 8.171875 38.21875 C 5.878906 37.570312 3.691406 36.324219 2.136719 34.777344 L 2.074219 34.703125 L 2.097656 34.582031 C 2.195312 33.71875 2.523438 32.5625 2.847656 31.851562 L 2.882812 31.742188 L 2.996094 31.710938 C 5.089844 31.101562 7.621094 31.121094 9.949219 31.6875 C 10.078125 31.40625 10.925781 29.378906 11.050781 29.074219 C 9 27.84375 7.199219 26.097656 6.125 24.207031 L 6.070312 24.085938 L 6.125 23.976562 C 6.464844 23.21875 7.066406 22.191406 7.546875 21.546875 L 7.621094 21.449219 L 7.753906 21.449219 C 9.949219 21.421875 12.371094 22.082031 14.460938 23.226562 C 14.652344 22.996094 16.082031 21.089844 16.277344 20.835938 C 14.617188 19.125 13.363281 16.984375 12.824219 14.863281 L 12.796875 14.777344 L 12.839844 14.683594 C 13.371094 14.023438 14.25 13.171875 14.894531 12.667969 L 15 12.605469 L 15.09375 12.621094 C 17.253906 13.171875 19.429688 14.441406 21.125 16.066406 C 21.375 15.875 23.066406 14.578125 23.320312 14.390625 C 22.152344 12.371094 21.5 10.019531 21.5 7.925781 L 21.5 7.609375 L 21.609375 7.535156 C 22.242188 7.042969 23.320312 6.433594 24.085938 6.125 L 24.167969 6.074219 L 24.296875 6.128906 C 26.1875 7.183594 27.96875 8.953125 29.210938 10.980469 C 29.507812 10.871094 31.710938 9.921875 32.015625 9.804688 C 31.726562 8.671875 31.546875 7.503906 31.5625 6.347656 C 31.5625 5.140625 31.710938 3.992188 32.03125 2.9375 L 32.050781 2.804688 L 32.164062 2.777344 C 32.875 2.476562 34.066406 2.167969 34.898438 2.035156 L 35.03125 2.019531 L 35.128906 2.105469 C 36.703125 3.621094 37.957031 5.785156 38.617188 8.070312 C 38.941406 8.035156 41.257812 7.75 41.570312 7.691406 C 41.621094 5.339844 42.273438 2.9375 43.410156 1.070312 L 43.457031 0.972656 L 43.574219 0.9375 C 44.410156 0.84375 45.632812 0.84375 46.4375 0.9375 L 46.542969 0.972656 L 46.609375 1.070312 C 47.753906 2.9375 48.410156 5.339844 48.410156 7.671875 C 48.761719 7.75 51.027344 8.035156 51.351562 8.070312 C 52.027344 5.785156 53.273438 3.632812 54.855469 2.113281 L 54.929688 2.035156 L 55.039062 2.066406 C 55.898438 2.167969 57.066406 2.476562 57.820312 2.804688 L 57.910156 2.839844 L 57.945312 2.96875 C 58.269531 4.015625 58.425781 5.160156 58.425781 6.347656 C 58.40625 7.515625 58.234375 8.695312 57.945312 9.828125 C 58.234375 9.945312 60.4375 10.851562 60.742188 10.980469 C 61.964844 8.953125 63.722656 7.203125 65.628906 6.128906 L 65.742188 6.074219 L 65.855469 6.125 C 66.613281 6.445312 67.671875 7.046875 68.320312 7.550781 L 68.417969 7.613281 L 68.417969 7.902344 C 68.417969 10.050781 67.746094 12.394531 66.613281 14.390625 C 66.855469 14.578125 68.675781 15.988281 68.953125 16.195312 C 70.664062 14.546875 72.839844 13.292969 74.988281 12.769531 L 75.082031 12.714844 L 75.179688 12.8125 C 75.824219 13.292969 76.695312 14.1875 77.191406 14.828125 L 77.28125 14.921875 L 77.238281 15.035156 C 76.695312 17.15625 75.402344 19.308594 73.757812 20.992188 C 73.949219 21.25 75.316406 23.035156 75.527344 23.292969 C 77.664062 22.15625 80.074219 21.511719 82.265625 21.546875 L 82.363281 21.546875 L 82.4375 21.644531 C 82.96875 22.3125 83.578125 23.355469 83.875 24.070312 L 83.941406 24.207031 L 83.875 24.3125 C 82.785156 26.1875 81 27.917969 78.953125 29.160156 C 79.074219 29.464844 79.910156 31.5 80.066406 31.785156 C 82.363281 31.207031 84.894531 31.195312 86.984375 31.785156 L 87.109375 31.804688 L 87.15625 31.925781 C 87.449219 32.644531 87.785156 33.816406 87.898438 34.671875 L 87.917969 34.777344 L 87.832031 34.863281 C 86.296875 36.4375 84.109375 37.671875 81.804688 38.3125 C 81.851562 38.625 82.140625 40.84375 82.195312 41.160156 C 84.613281 41.214844 87.03125 41.851562 88.90625 42.953125 L 89.027344 43.023438 L 89.039062 43.136719 C 89.09375 43.542969 89.121094 44.03125 89.121094 44.554688 Z M 22.824219 19.097656 L 26.449219 23.09375 C 26.953125 23.632812 27.511719 23.566406 28.242188 22.996094 C 32.824219 19.441406 38.699219 17.34375 44.960938 17.34375 C 51.230469 17.34375 57.105469 19.4375 61.734375 22.996094 C 62.457031 23.523438 62.996094 23.632812 63.527344 23.09375 L 67.152344 19.097656 C 67.566406 18.65625 67.566406 18.046875 66.777344 17.394531 C 60.699219 12.714844 53.199219 9.828125 44.945312 9.828125 C 36.746094 9.828125 29.132812 12.714844 23.164062 17.417969 C 22.382812 18.046875 22.417969 18.65625 22.824219 19.097656 Z M 23.066406 35.890625 C 22.671875 35.636719 22.242188 35.339844 21.894531 35.492188 C 21.613281 35.578125 21.40625 35.871094 21.257812 36.347656 C 19.558594 42.117188 19.558594 47.003906 21.257812 52.699219 C 21.375 53.070312 21.5 53.4375 21.84375 53.53125 C 22.121094 53.644531 22.53125 53.53125 23.066406 53.164062 L 34.289062 45.605469 C 34.707031 45.328125 34.957031 44.9375 34.957031 44.539062 C 34.957031 44.113281 34.707031 43.734375 34.289062 43.445312 Z M 25.523438 29.273438 C 25.574219 29.679688 26.039062 29.886719 26.449219 30.074219 L 38.675781 35.945312 C 39.160156 36.179688 39.613281 36.179688 39.984375 35.988281 C 40.324219 35.765625 40.546875 35.375 40.582031 34.863281 L 41.566406 21.453125 C 41.621094 20.800781 41.53125 20.421875 41.296875 20.222656 C 41.035156 20.003906 40.652344 20.066406 40.285156 20.132812 C 34.421875 21.527344 30.152344 23.976562 25.945312 28.316406 C 25.605469 28.695312 25.449219 29.015625 25.523438 29.273438 Z M 25.699219 59.945312 C 25.699219 60.175781 25.859375 60.460938 26.15625 60.765625 C 30.363281 65.144531 34.628906 67.582031 40.484375 68.941406 C 40.859375 69.054688 41.226562 69.109375 41.484375 68.90625 C 41.75 68.710938 41.828125 68.308594 41.78125 67.675781 C 41.78125 67.660156 40.785156 54.234375 40.785156 54.234375 C 40.746094 53.726562 40.546875 53.339844 40.1875 53.132812 C 39.824219 52.925781 39.371094 52.925781 38.878906 53.140625 L 26.667969 59.019531 C 26.242188 59.21875 25.78125 59.441406 25.714844 59.835938 C 25.714844 59.859375 25.699219 59.914062 25.699219 59.945312 Z M 44.960938 53.1875 C 49.796875 53.1875 53.726562 49.304688 53.726562 44.523438 C 53.726562 39.746094 49.796875 35.859375 44.960938 35.839844 C 40.128906 35.839844 36.199219 39.746094 36.199219 44.523438 C 36.199219 49.304688 40.128906 53.1875 44.960938 53.1875 Z M 48.667969 68.710938 C 48.871094 68.871094 49.214844 68.921875 49.738281 68.792969 C 55.578125 67.40625 59.859375 64.957031 64.035156 60.625 C 64.285156 60.339844 64.558594 60.046875 64.476562 59.722656 C 64.398438 59.410156 64.132812 59.128906 63.5625 58.859375 L 51.316406 52.988281 C 50.851562 52.769531 50.398438 52.769531 50.027344 52.960938 C 49.664062 53.1875 49.449219 53.566406 49.414062 54.097656 L 48.425781 67.503906 C 48.410156 67.941406 48.363281 68.445312 48.667969 68.710938 Z M 66.925781 53.089844 C 67.292969 53.320312 67.710938 53.605469 68.09375 53.472656 C 68.355469 53.394531 68.582031 53.109375 68.722656 52.609375 C 70.4375 46.859375 70.4375 41.949219 68.722656 36.273438 C 68.617188 35.914062 68.449219 35.546875 68.148438 35.410156 C 67.84375 35.304688 67.460938 35.429688 66.910156 35.800781 L 55.683594 43.351562 C 55.246094 43.640625 55.023438 44.03125 55.023438 44.4375 C 55.023438 44.84375 55.246094 45.238281 55.683594 45.519531 Z M 64.453125 29.058594 C 64.464844 28.828125 64.324219 28.539062 63.996094 28.222656 C 59.828125 23.859375 55.542969 21.421875 49.664062 20.039062 C 49.335938 19.953125 48.953125 19.875 48.699219 20.097656 C 48.4375 20.308594 48.363281 20.707031 48.410156 21.308594 L 49.382812 34.757812 C 49.414062 35.265625 49.648438 35.664062 49.988281 35.871094 C 50.367188 36.085938 50.8125 36.042969 51.289062 35.820312 L 63.527344 29.980469 C 63.921875 29.792969 64.367188 29.585938 64.453125 29.171875 C 64.453125 29.144531 64.464844 29.113281 64.453125 29.058594 Z M 12.179688 53.054688 L 17.390625 51.554688 C 17.875 51.414062 18.28125 50.90625 18.242188 50.277344 C 16.371094 40.679688 18.75 32.898438 24.4375 26.664062 C 25.011719 26.257812 25.074219 25.421875 24.523438 24.855469 L 20.734375 21.089844 C 20.367188 20.671875 19.695312 20.671875 19.125 21.25 C 11.863281 28.8125 8.199219 40.402344 10.886719 52.261719 C 11.035156 52.832031 11.488281 53.25 12.179688 53.054688 Z M 76.957031 55.808594 L 71.730469 54.046875 C 71.457031 53.945312 70.746094 53.945312 70.371094 54.855469 C 66.152344 64.859375 56.332031 71.707031 44.960938 71.707031 C 33.574219 71.707031 23.574219 64.699219 19.539062 54.699219 C 19.347656 54.167969 18.769531 53.878906 18.226562 54.046875 L 13.03125 55.808594 C 12.46875 56.007812 12.128906 56.507812 12.421875 57.21875 C 17.527344 70.097656 30.214844 79.183594 44.960938 79.183594 C 59.703125 79.183594 72.449219 70.035156 77.570312 57.164062 C 77.835938 56.496094 77.515625 56.011719 76.957031 55.808594 Z M 70.917969 21.203125 C 70.402344 20.582031 69.554688 20.671875 69.3125 21.105469 L 65.535156 24.855469 C 64.984375 25.421875 65.039062 26.257812 65.613281 26.664062 C 71.308594 32.898438 73.6875 40.664062 71.824219 50.277344 C 71.777344 50.90625 72.183594 51.414062 72.679688 51.554688 L 77.898438 53.054688 C 78.59375 53.25 79.039062 52.832031 79.1875 52.242188 C 81.875 40.402344 78.195312 28.769531 70.917969 21.203125 Z M 89.121094 44.554688 C 89.121094 45.066406 89.09375 45.574219 89.039062 45.984375 L 89.027344 46.089844 L 88.90625 46.152344 C 87.023438 47.257812 84.605469 47.886719 82.171875 47.953125 C 82.117188 48.257812 81.851562 50.429688 81.804688 50.734375 C 84.074219 51.382812 86.273438 52.609375 87.804688 54.171875 L 87.863281 54.269531 L 87.863281 54.367188 C 87.746094 55.222656 87.441406 56.371094 87.097656 57.113281 L 87.0625 57.230469 L 86.949219 57.246094 C 84.824219 57.855469 82.320312 57.832031 80.003906 57.265625 C 79.890625 57.550781 79.039062 59.566406 78.949219 59.859375 C 80.980469 61.128906 82.773438 62.871094 83.785156 64.734375 L 83.839844 64.84375 L 83.800781 64.949219 C 83.488281 65.6875 82.898438 66.761719 82.363281 67.40625 L 82.304688 67.503906 L 82.171875 67.503906 C 80.003906 67.53125 77.578125 66.894531 75.464844 65.726562 C 75.269531 65.972656 73.859375 67.820312 73.671875 68.070312 C 75.332031 69.765625 76.601562 71.921875 77.109375 74.042969 L 77.144531 74.152344 L 77.082031 74.230469 C 76.59375 74.878906 75.707031 75.738281 75.0625 76.257812 L 74.988281 76.320312 L 74.824219 76.289062 C 72.742188 75.738281 70.535156 74.492188 68.820312 72.851562 C 68.5625 73.039062 66.816406 74.394531 66.554688 74.585938 C 67.675781 76.613281 68.355469 78.949219 68.355469 81.0625 L 68.355469 81.355469 L 68.226562 81.425781 C 67.582031 81.941406 66.503906 82.554688 65.738281 82.867188 L 65.664062 82.898438 L 65.535156 82.859375 C 63.65625 81.773438 61.855469 80.011719 60.625 77.988281 C 60.328125 78.117188 58.195312 79.015625 57.910156 79.144531 C 58.195312 80.273438 58.371094 81.449219 58.40625 82.613281 C 58.40625 83.789062 58.195312 84.964844 57.910156 86.03125 L 57.894531 86.136719 L 57.777344 86.195312 C 57.066406 86.492188 55.863281 86.785156 55.023438 86.933594 L 54.894531 86.949219 L 54.824219 86.859375 C 53.207031 85.335938 51.96875 83.171875 51.316406 80.910156 C 51.027344 80.933594 48.820312 81.226562 48.511719 81.289062 C 48.46875 83.664062 47.8125 86.066406 46.671875 87.933594 L 46.609375 88.03125 L 46.476562 88.046875 C 45.710938 88.160156 44.484375 88.160156 43.648438 88.046875 L 43.542969 88.03125 L 43.472656 87.933594 C 42.367188 86.066406 41.707031 83.664062 41.652344 81.289062 C 41.320312 81.257812 38.996094 80.933594 38.675781 80.910156 C 38.035156 83.15625 36.789062 85.308594 35.214844 86.851562 L 35.128906 86.933594 L 35 86.910156 C 34.136719 86.785156 33 86.460938 32.238281 86.148438 L 32.148438 86.101562 L 32.109375 86.003906 C 31.789062 84.949219 31.621094 83.757812 31.621094 82.582031 C 31.621094 81.425781 31.789062 80.273438 32.085938 79.144531 C 31.789062 79.015625 29.777344 78.210938 29.484375 78.085938 C 28.242188 80.140625 26.449219 81.925781 24.550781 82.96875 L 24.453125 83.027344 L 24.328125 82.992188 C 23.546875 82.648438 22.507812 82.058594 21.84375 81.566406 L 21.761719 81.480469 L 21.761719 81.257812 C 21.761719 79.121094 22.417969 76.769531 23.546875 74.714844 C 22.753906 74.113281 21.960938 73.515625 21.160156 72.921875 C 19.445312 74.558594 17.253906 75.792969 15.140625 76.332031 L 15.027344 76.363281 L 14.914062 76.289062 C 14.265625 75.769531 13.4375 74.941406 12.914062 74.292969 L 12.839844 74.175781 L 12.871094 74.0625 C 13.4375 71.957031 14.703125 69.804688 16.347656 68.132812 C 16.160156 67.878906 14.738281 66.058594 14.539062 65.78125 C 12.449219 66.945312 10 67.613281 7.832031 67.5625 L 7.714844 67.5625 L 7.640625 67.484375 C 7.136719 66.820312 6.527344 65.761719 6.199219 65.011719 L 6.152344 64.898438 L 6.199219 64.796875 C 7.292969 62.90625 9.078125 61.160156 11.113281 59.953125 C 10.984375 59.640625 10.113281 57.613281 9.964844 57.324219 C 7.648438 57.894531 5.132812 57.910156 3.011719 57.324219 L 2.910156 57.292969 L 2.847656 57.199219 C 2.558594 56.488281 2.246094 55.300781 2.117188 54.464844 L 2.097656 54.332031 L 2.167969 54.234375 C 3.714844 52.679688 5.878906 51.449219 8.199219 50.769531 C 8.171875 50.449219 7.832031 48.140625 7.796875 47.820312 C 5.378906 47.789062 2.941406 47.167969 1.054688 46.058594 L 0.957031 45.996094 L 0.945312 45.867188 C 0.890625 45.480469 0.878906 44.972656 0.878906 44.457031 C 0.878906 43.957031 0.890625 43.460938 0.945312 43.042969 L 0.957031 42.914062 L 1.054688 42.863281 C 2.941406 41.757812 5.378906 41.121094 7.796875 41.085938 C 7.847656 40.769531 8.136719 38.523438 8.171875 38.21875 C 5.878906 37.570312 3.691406 36.324219 2.136719 34.777344 L 2.074219 34.703125 L 2.097656 34.582031 C 2.195312 33.71875 2.523438 32.5625 2.847656 31.851562 L 2.882812 31.742188 L 2.996094 31.710938 C 5.089844 31.101562 7.621094 31.121094 9.949219 31.6875 C 10.078125 31.40625 10.925781 29.378906 11.050781 29.074219 C 9 27.84375 7.199219 26.097656 6.125 24.207031 L 6.070312 24.085938 L 6.125 23.976562 C 6.464844 23.21875 7.066406 22.191406 7.546875 21.546875 L 7.621094 21.449219 L 7.753906 21.449219 C 9.949219 21.421875 12.371094 22.082031 14.460938 23.226562 C 14.652344 22.996094 16.082031 21.089844 16.277344 20.835938 C 14.617188 19.125 13.363281 16.984375 12.824219 14.863281 L 12.796875 14.777344 L 12.839844 14.683594 C 13.371094 14.023438 14.25 13.171875 14.894531 12.667969 L 15 12.605469 L 15.09375 12.621094 C 17.253906 13.171875 19.429688 14.441406 21.125 16.066406 C 21.375 15.875 23.066406 14.578125 23.320312 14.390625 C 22.152344 12.371094 21.5 10.019531 21.5 7.925781 L 21.5 7.609375 L 21.609375 7.535156 C 22.242188 7.042969 23.320312 6.433594 24.085938 6.125 L 24.167969 6.074219 L 24.296875 6.128906 C 26.1875 7.183594 27.96875 8.953125 29.210938 10.980469 C 29.507812 10.871094 31.710938 9.921875 32.015625 9.804688 C 31.726562 8.671875 31.546875 7.503906 31.5625 6.347656 C 31.5625 5.140625 31.710938 3.992188 32.03125 2.9375 L 32.050781 2.804688 L 32.164062 2.777344 C 32.875 2.476562 34.066406 2.167969 34.898438 2.035156 L 35.03125 2.019531 L 35.128906 2.105469 C 36.703125 3.621094 37.957031 5.785156 38.617188 8.070312 C 38.941406 8.035156 41.257812 7.75 41.570312 7.691406 C 41.621094 5.339844 42.273438 2.9375 43.410156 1.070312 L 43.457031 0.972656 L 43.574219 0.9375 C 44.410156 0.84375 45.632812 0.84375 46.4375 0.9375 L 46.542969 0.972656 L 46.609375 1.070312 C 47.753906 2.9375 48.410156 5.339844 48.410156 7.671875 C 48.761719 7.75 51.027344 8.035156 51.351562 8.070312 C 52.027344 5.785156 53.273438 3.632812 54.855469 2.113281 L 54.929688 2.035156 L 55.039062 2.066406 C 55.898438 2.167969 57.066406 2.476562 57.820312 2.804688 L 57.910156 2.839844 L 57.945312 2.96875 C 58.269531 4.015625 58.425781 5.160156 58.425781 6.347656 C 58.40625 7.515625 58.234375 8.695312 57.945312 9.828125 C 58.234375 9.945312 60.4375 10.851562 60.742188 10.980469 C 61.964844 8.953125 63.722656 7.203125 65.628906 6.128906 L 65.742188 6.074219 L 65.855469 6.125 C 66.613281 6.445312 67.671875 7.046875 68.320312 7.550781 L 68.417969 7.613281 L 68.417969 7.902344 C 68.417969 10.050781 67.746094 12.394531 66.613281 14.390625 C 66.855469 14.578125 68.675781 15.988281 68.953125 16.195312 C 70.664062 14.546875 72.839844 13.292969 74.988281 12.769531 L 75.082031 12.714844 L 75.179688 12.8125 C 75.824219 13.292969 76.695312 14.1875 77.191406 14.828125 L 77.28125 14.921875 L 77.238281 15.035156 C 76.695312 17.15625 75.402344 19.308594 73.757812 20.992188 C 73.949219 21.25 75.316406 23.035156 75.527344 23.292969 C 77.664062 22.15625 80.074219 21.511719 82.265625 21.546875 L 82.363281 21.546875 L 82.4375 21.644531 C 82.96875 22.3125 83.578125 23.355469 83.875 24.070312 L 83.941406 24.207031 L 83.875 24.3125 C 82.785156 26.1875 81 27.917969 78.953125 29.160156 C 79.074219 29.464844 79.910156 31.5 80.066406 31.785156 C 82.363281 31.207031 84.894531 31.195312 86.984375 31.785156 L 87.109375 31.804688 L 87.15625 31.925781 C 87.449219 32.644531 87.785156 33.816406 87.898438 34.671875 L 87.917969 34.777344 L 87.832031 34.863281 C 86.296875 36.4375 84.109375 37.671875 81.804688 38.3125 C 81.851562 38.625 82.140625 40.84375 82.195312 41.160156 C 84.613281 41.214844 87.03125 41.851562 88.90625 42.953125 L 89.027344 43.023438 L 89.039062 43.136719 C 89.09375 43.542969 89.121094 44.03125 89.121094 44.554688 Z M 22.824219 19.097656 L 26.449219 23.09375 C 26.953125 23.632812 27.511719 23.566406 28.242188 22.996094 C 32.824219 19.441406 38.699219 17.34375 44.960938 17.34375 C 51.230469 17.34375 57.105469 19.4375 61.734375 22.996094 C 62.457031 23.523438 62.996094 23.632812 63.527344 23.09375 L 67.152344 19.097656 C 67.566406 18.65625 67.566406 18.046875 66.777344 17.394531 C 60.699219 12.714844 53.199219 9.828125 44.945312 9.828125 C 36.746094 9.828125 29.132812 12.714844 23.164062 17.417969 C 22.382812 18.046875 22.417969 18.65625 22.824219 19.097656 Z M 23.066406 35.890625 C 22.671875 35.636719 22.242188 35.339844 21.894531 35.492188 C 21.613281 35.578125 21.40625 35.871094 21.257812 36.347656 C 19.558594 42.117188 19.558594 47.003906 21.257812 52.699219 C 21.375 53.070312 21.5 53.4375 21.84375 53.53125 C 22.121094 53.644531 22.53125 53.53125 23.066406 53.164062 L 34.289062 45.605469 C 34.707031 45.328125 34.957031 44.9375 34.957031 44.539062 C 34.957031 44.113281 34.707031 43.734375 34.289062 43.445312 Z M 25.523438 29.273438 C 25.574219 29.679688 26.039062 29.886719 26.449219 30.074219 L 38.675781 35.945312 C 39.160156 36.179688 39.613281 36.179688 39.984375 35.988281 C 40.324219 35.765625 40.546875 35.375 40.582031 34.863281 L 41.566406 21.453125 C 41.621094 20.800781 41.53125 20.421875 41.296875 20.222656 C 41.035156 20.003906 40.652344 20.066406 40.285156 20.132812 C 34.421875 21.527344 30.152344 23.976562 25.945312 28.316406 C 25.605469 28.695312 25.449219 29.015625 25.523438 29.273438 Z M 25.699219 59.945312 C 25.699219 60.175781 25.859375 60.460938 26.15625 60.765625 C 30.363281 65.144531 34.628906 67.582031 40.484375 68.941406 C 40.859375 69.054688 41.226562 69.109375 41.484375 68.90625 C 41.75 68.710938 41.828125 68.308594 41.78125 67.675781 C 41.78125 67.660156 40.785156 54.234375 40.785156 54.234375 C 40.746094 53.726562 40.546875 53.339844 40.1875 53.132812 C 39.824219 52.925781 39.371094 52.925781 38.878906 53.140625 L 26.667969 59.019531 C 26.242188 59.21875 25.78125 59.441406 25.714844 59.835938 C 25.714844 59.859375 25.699219 59.914062 25.699219 59.945312 Z M 44.960938 53.1875 C 49.796875 53.1875 53.726562 49.304688 53.726562 44.523438 C 53.726562 39.746094 49.796875 35.859375 44.960938 35.839844 C 40.128906 35.839844 36.199219 39.746094 36.199219 44.523438 C 36.199219 49.304688 40.128906 53.1875 44.960938 53.1875 Z M 48.667969 68.710938 C 48.871094 68.871094 49.214844 68.921875 49.738281 68.792969 C 55.578125 67.40625 59.859375 64.957031 64.035156 60.625 C 64.285156 60.339844 64.558594 60.046875 64.476562 59.722656 C 64.398438 59.410156 64.132812 59.128906 63.5625 58.859375 L 51.316406 52.988281 C 50.851562 52.769531 50.398438 52.769531 50.027344 52.960938 C 49.664062 53.1875 49.449219 53.566406 49.414062 54.097656 L 48.425781 67.503906 C 48.410156 67.941406 48.363281 68.445312 48.667969 68.710938 Z M 66.925781 53.089844 C 67.292969 53.320312 67.710938 53.605469 68.09375 53.472656 C 68.355469 53.394531 68.582031 53.109375 68.722656 52.609375 C 70.4375 46.859375 70.4375 41.949219 68.722656 36.273438 C 68.617188 35.914062 68.449219 35.546875 68.148438 35.410156 C 67.84375 35.304688 67.460938 35.429688 66.910156 35.800781 L 55.683594 43.351562 C 55.246094 43.640625 55.023438 44.03125 55.023438 44.4375 C 55.023438 44.84375 55.246094 45.238281 55.683594 45.519531 Z M 64.453125 29.058594 C 64.464844 28.828125 64.324219 28.539062 63.996094 28.222656 C 59.828125 23.859375 55.542969 21.421875 49.664062 20.039062 C 49.335938 19.953125 48.953125 19.875 48.699219 20.097656 C 48.4375 20.308594 48.363281 20.707031 48.410156 21.308594 L 49.382812 34.757812 C 49.414062 35.265625 49.648438 35.664062 49.988281 35.871094 C 50.367188 36.085938 50.8125 36.042969 51.289062 35.820312 L 63.527344 29.980469 C 63.921875 29.792969 64.367188 29.585938 64.453125 29.171875 C 64.453125 29.144531 64.464844 29.113281 64.453125 29.058594 Z M 12.179688 53.054688 L 17.390625 51.554688 C 17.875 51.414062 18.28125 50.90625 18.242188 50.277344 C 16.371094 40.679688 18.75 32.898438 24.4375 26.664062 C 25.011719 26.257812 25.074219 25.421875 24.523438 24.855469 L 20.734375 21.089844 C 20.367188 20.671875 19.695312 20.671875 19.125 21.25 C 11.863281 28.8125 8.199219 40.402344 10.886719 52.261719 C 11.035156 52.832031 11.488281 53.25 12.179688 53.054688 Z M 76.957031 55.808594 L 71.730469 54.046875 C 71.457031 53.945312 70.746094 53.945312 70.371094 54.855469 C 66.152344 64.859375 56.332031 71.707031 44.960938 71.707031 C 33.574219 71.707031 23.574219 64.699219 19.539062 54.699219 C 19.347656 54.167969 18.769531 53.878906 18.226562 54.046875 L 13.03125 55.808594 C 12.46875 56.007812 12.128906 56.507812 12.421875 57.21875 C 17.527344 70.097656 30.214844 79.183594 44.960938 79.183594 C 59.703125 79.183594 72.449219 70.035156 77.570312 57.164062 C 77.835938 56.496094 77.515625 56.011719 76.957031 55.808594 Z M 70.917969 21.203125 C 70.402344 20.582031 69.554688 20.671875 69.3125 21.105469 L 65.535156 24.855469 C 64.984375 25.421875 65.039062 26.257812 65.613281 26.664062 C 71.308594 32.898438 73.6875 40.664062 71.824219 50.277344 C 71.777344 50.90625 72.183594 51.414062 72.679688 51.554688 L 77.898438 53.054688 C 78.59375 53.25 79.039062 52.832031 79.1875 52.242188 C 81.875 40.402344 78.195312 28.769531 70.917969 21.203125 Z M 89.121094 44.554688 C 89.121094 45.066406 89.09375 45.574219 89.039062 45.984375 L 89.027344 46.089844 L 88.90625 46.152344 C 87.023438 47.257812 84.605469 47.886719 82.171875 47.953125 C 82.117188 48.257812 81.851562 50.429688 81.804688 50.734375 C 84.074219 51.382812 86.273438 52.609375 87.804688 54.171875 L 87.863281 54.269531 L 87.863281 54.367188 C 87.746094 55.222656 87.441406 56.371094 87.097656 57.113281 L 87.0625 57.230469 L 86.949219 57.246094 C 84.824219 57.855469 82.320312 57.832031 80.003906 57.265625 C 79.890625 57.550781 79.039062 59.566406 78.949219 59.859375 C 80.980469 61.128906 82.773438 62.871094 83.785156 64.734375 L 83.839844 64.84375 L 83.800781 64.949219 C 83.488281 65.6875 82.898438 66.761719 82.363281 67.40625 L 82.304688 67.503906 L 82.171875 67.503906 C 80.003906 67.53125 77.578125 66.894531 75.464844 65.726562 C 75.269531 65.972656 73.859375 67.820312 73.671875 68.070312 C 75.332031 69.765625 76.601562 71.921875 77.109375 74.042969 L 77.144531 74.152344 L 77.082031 74.230469 C 76.59375 74.878906 75.707031 75.738281 75.0625 76.257812 L 74.988281 76.320312 L 74.824219 76.289062 C 72.742188 75.738281 70.535156 74.492188 68.820312 72.851562 C 68.5625 73.039062 66.816406 74.394531 66.554688 74.585938 C 67.675781 76.613281 68.355469 78.949219 68.355469 81.0625 L 68.355469 81.355469 L 68.226562 81.425781 C 67.582031 81.941406 66.503906 82.554688 65.738281 82.867188 L 65.664062 82.898438 L 65.535156 82.859375 C 63.65625 81.773438 61.855469 80.011719 60.625 77.988281 C 60.328125 78.117188 58.195312 79.015625 57.910156 79.144531 C 58.195312 80.273438 58.371094 81.449219 58.40625 82.613281 C 58.40625 83.789062 58.195312 84.964844 57.910156 86.03125 L 57.894531 86.136719 L 57.777344 86.195312 C 57.066406 86.492188 55.863281 86.785156 55.023438 86.933594 L 54.894531 86.949219 L 54.824219 86.859375 C 53.207031 85.335938 51.96875 83.171875 51.316406 80.910156 C 51.027344 80.933594 48.820312 81.226562 48.511719 81.289062 C 48.46875 83.664062 47.8125 86.066406 46.671875 87.933594 L 46.609375 88.03125 L 46.476562 88.046875 C 45.710938 88.160156 44.484375 88.160156 43.648438 88.046875 L 43.542969 88.03125 L 43.472656 87.933594 C 42.367188 86.066406 41.707031 83.664062 41.652344 81.289062 C 41.320312 81.257812 38.996094 80.933594 38.675781 80.910156 C 38.035156 83.15625 36.789062 85.308594 35.214844 86.851562 L 35.128906 86.933594 L 35 86.910156 C 34.136719 86.785156 33 86.460938 32.238281 86.148438 L 32.148438 86.101562 L 32.109375 86.003906 C 31.789062 84.949219 31.621094 83.757812 31.621094 82.582031 C 31.621094 81.425781 31.789062 80.273438 32.085938 79.144531 C 31.789062 79.015625 29.777344 78.210938 29.484375 78.085938 C 28.242188 80.140625 26.449219 81.925781 24.550781 82.96875 L 24.453125 83.027344 L 24.328125 82.992188 C 23.546875 82.648438 22.507812 82.058594 21.84375 81.566406 L 21.761719 81.480469 L 21.761719 81.257812 C 21.761719 79.121094 22.417969 76.769531 23.546875 74.714844 C 22.753906 74.113281 21.960938 73.515625 21.160156 72.921875 C 19.445312 74.558594 17.253906 75.792969 15.140625 76.332031 L 15.027344 76.363281 L 14.914062 76.289062 C 14.265625 75.769531 13.4375 74.941406 12.914062 74.292969 L 12.839844 74.175781 L 12.871094 74.0625 C 13.4375 71.957031 14.703125 69.804688 16.347656 68.132812 C 16.160156 67.878906 14.738281 66.058594 14.539062 65.78125 C 12.449219 66.945312 10 67.613281 7.832031 67.5625 L 7.714844 67.5625 L 7.640625 67.484375 C 7.136719 66.820312 6.527344 65.761719 6.199219 65.011719 L 6.152344 64.898438 L 6.199219 64.796875 C 7.292969 62.90625 9.078125 61.160156 11.113281 59.953125 C 10.984375 59.640625 10.113281 57.613281 9.964844 57.324219 C 7.648438 57.894531 5.132812 57.910156 3.011719 57.324219 L 2.910156 57.292969 L 2.847656 57.199219 C 2.558594 56.488281 2.246094 55.300781 2.117188 54.464844 L 2.097656 54.332031 L 2.167969 54.234375 C 3.714844 52.679688 5.878906 51.449219 8.199219 50.769531 C 8.171875 50.449219 7.832031 48.140625 7.796875 47.820312 C 5.378906 47.789062 2.941406 47.167969 1.054688 46.058594 L 0.957031 45.996094 L 0.945312 45.867188 C 0.890625 45.480469 0.878906 44.972656 0.878906 44.457031 C 0.878906 43.957031 0.890625 43.460938 0.945312 43.042969 L 0.957031 42.914062 L 1.054688 42.863281 C 2.941406 41.757812 5.378906 41.121094 7.796875 41.085938 C 7.847656 40.769531 8.136719 38.523438 8.171875 38.21875 C 5.878906 37.570312 3.691406 36.324219 2.136719 34.777344 L 2.074219 34.703125 L 2.097656 34.582031 C 2.195312 33.71875 2.523438 32.5625 2.847656 31.851562 L 2.882812 31.742188 L 2.996094 31.710938 C 5.089844 31.101562 7.621094 31.121094 9.949219 31.6875 C 10.078125 31.40625 10.925781 29.378906 11.050781 29.074219 C 9 27.84375 7.199219 26.097656 6.125 24.207031 L 6.070312 24.085938 L 6.125 23.976562 C 6.464844 23.21875 7.066406 22.191406 7.546875 21.546875 L 7.621094 21.449219 L 7.753906 21.449219 C 9.949219 21.421875 12.371094 22.082031 14.460938 23.226562 C 14.652344 22.996094 16.082031 21.089844 16.277344 20.835938 C 14.617188 19.125 13.363281 16.984375 12.824219 14.863281 L 12.796875 14.777344 L 12.839844 14.683594 C 13.371094 14.023438 14.25 13.171875 14.894531 12.667969 L 15 12.605469 L 15.09375 12.621094 C 17.253906 13.171875 19.429688 14.441406 21.125 16.066406 C 21.375 15.875 23.066406 14.578125 23.320312 14.390625 C 22.152344 12.371094 21.5 10.019531 21.5 7.925781 L 21.5 7.609375 L 21.609375 7.535156 C 22.242188 7.042969 23.320312 6.433594 24.085938 6.125 L 24.167969 6.074219 L 24.296875 6.128906 C 26.1875 7.183594 27.96875 8.953125 29.210938 10.980469 C 29.507812 10.871094 31.710938 9.921875 32.015625 9.804688 C 31.726562 8.671875 31.546875 7.503906 31.5625 6.347656 C 31.5625 5.140625 31.710938 3.992188 32.03125 2.9375 L 32.050781 2.804688 L 32.164062 2.777344 C 32.875 2.476562 34.066406 2.167969 34.898438 2.035156 L 35.03125 2.019531 L 35.128906 2.105469 C 36.703125 3.621094 37.957031 5.785156 38.617188 8.070312 C 38.941406 8.035156 41.257812 7.75 41.570312 7.691406 C 41.621094 5.339844 42.273438 2.9375 43.410156 1.070312 L 43.457031 0.972656 L 43.574219 0.9375 C 44.410156 0.84375 45.632812 0.84375 46.4375 0.9375 L 46.542969 0.972656 L 46.609375 1.070312 C 47.753906 2.9375 48.410156 5.339844 48.410156 7.671875 C 48.761719 7.75 51.027344 8.035156 51.351562 8.070312 C 52.027344 5.785156 53.273438 3.632812 54.855469 2.113281 L 54.929688 2.035156 L 55.039062 2.066406 C 55.898438 2.167969 57.066406 2.476562 57.820312 2.804688 L 57.910156 2.839844 L 57.945312 2.96875 C 58.269531 4.015625 58.425781 5.160156 58.425781 6.347656 C 58.40625 7.515625 58.234375 8.695312 57.945312 9.828125 C 58.234375 9.945312 60.4375 10.851562 60.742188 10.980469 C 61.964844 8.953125 63.722656 7.203125 65.628906 6.128906 L 65.742188 6.074219 L 65.855469 6.125 C 66.613281 6.445312 67.671875 7.046875 68.320312 7.550781 L 68.417969 7.613281 L 68.417969 7.902344 C 68.417969 10.050781 67.746094 12.394531 66.613281 14.390625 C 66.855469 14.578125 68.675781 15.988281 68.953125 16.195312 C 70.664062 14.546875 72.839844 13.292969 74.988281 12.769531 L 75.082031 12.714844 L 75.179688 12.8125 C 75.824219 13.292969 76.695312 14.1875 77.191406 14.828125 L 77.28125 14.921875 L 77.238281 15.035156 C 76.695312 17.15625 75.402344 19.308594 73.757812 20.992188 C 73.949219 21.25 75.316406 23.035156 75.527344 23.292969 C 77.664062 22.15625 80.074219 21.511719 82.265625 21.546875 L 82.363281 21.546875 L 82.4375 21.644531 C 82.96875 22.3125 83.578125 23.355469 83.875 24.070312 L 83.941406 24.207031 L 83.875 24.3125 C 82.785156 26.1875 81 27.917969 78.953125 29.160156 C 79.074219 29.464844 79.910156 31.5 80.066406 31.785156 C 82.363281 31.207031 84.894531 31.195312 86.984375 31.785156 L 87.109375 31.804688 L 87.15625 31.925781 C 87.449219 32.644531 87.785156 33.816406 87.898438 34.671875 L 87.917969 34.777344 L 87.832031 34.863281 C 86.296875 36.4375 84.109375 37.671875 81.804688 38.3125 C 81.851562 38.625 82.140625 40.84375 82.195312 41.160156 C 84.613281 41.214844 87.03125 41.851562 88.90625 42.953125 L 89.027344 43.023438 L 89.039062 43.136719 C 89.09375 43.542969 89.121094 44.03125 89.121094 44.554688 Z M 22.824219 19.097656 L 26.449219 23.09375 C 26.953125 23.632812 27.511719 23.566406 28.242188 22.996094 C 32.824219 19.441406 38.699219 17.34375 44.960938 17.34375 C 51.230469 17.34375 57.105469 19.4375 61.734375 22.996094 C 62.457031 23.523438 62.996094 23.632812 63.527344 23.09375 L 67.152344 19.097656 C 67.566406 18.65625 67.566406 18.046875 66.777344 17.394531 C 60.699219 12.714844 53.199219 9.828125 44.945312 9.828125 C 36.746094 9.828125 29.132812 12.714844 23.164062 17.417969 C 22.382812 18.046875 22.417969 18.65625 22.824219 19.097656 Z M 23.066406 35.890625 C 22.671875 35.636719 22.242188 35.339844 21.894531 35.492188 C 21.613281 35.578125 21.40625 35.871094 21.257812 36.347656 C 19.558594 42.117188 19.558594 47.003906 21.257812 52.699219 C 21.375 53.070312 21.5 53.4375 21.84375 53.53125 C 22.121094 53.644531 22.53125 53.53125 23.066406 53.164062 L 34.289062 45.605469 C 34.707031 45.328125 34.957031 44.9375 34.957031 44.539062 C 34.957031 44.113281 34.707031 43.734375 34.289062 43.445312 Z M 25.523438 29.273438 C 25.574219 29.679688 26.039062 29.886719 26.449219 30.074219 L 38.675781 35.945312 C 39.160156 36.179688 39.613281 36.179688 39.984375 35.988281 C 40.324219 35.765625 40.546875 35.375 40.582031 34.863281 L 41.566406 21.453125 C 41.621094 20.800781 41.53125 20.421875 41.296875 20.222656 C 41.035156 20.003906 40.652344 20.066406 40.285156 20.132812 C 34.421875 21.527344 30.152344 23.976562 25.945312 28.316406 C 25.605469 28.695312 25.449219 29.015625 25.523438 29.273438 Z M 25.699219 59.945312 C 25.699219 60.175781 25.859375 60.460938 26.15625 60.765625 C 30.363281 65.144531 34.628906 67.582031 40.484375 68.941406 C 40.859375 69.054688 41.226562 69.109375 41.484375 68.90625 C 41.75 68.710938 41.828125 68.308594 41.78125 67.675781 C 41.78125 67.660156 40.785156 54.234375 40.785156 54.234375 C 40.746094 53.726562 40.546875 53.339844 40.1875 53.132812 C 39.824219 52.925781 39.371094 52.925781 38.878906 53.140625 L 26.667969 59.019531 C 26.242188 59.21875 25.78125 59.441406 25.714844 59.835938 C 25.714844 59.859375 25.699219 59.914062 25.699219 59.945312 Z M 44.960938 53.1875 C 49.796875 53.1875 53.726562 49.304688 53.726562 44.523438 C 53.726562 39.746094 49.796875 35.859375 44.960938 35.839844 C 40.128906 35.839844 36.199219 39.746094 36.199219 44.523438 C 36.199219 49.304688 40.128906 53.1875 44.960938 53.1875 Z M 48.667969 68.710938 C 48.871094 68.871094 49.214844 68.921875 49.738281 68.792969 C 55.578125 67.40625 59.859375 64.957031 64.035156 60.625 C 64.285156 60.339844 64.558594 60.046875 64.476562 59.722656 C 64.398438 59.410156 64.132812 59.128906 63.5625 58.859375 L 51.316406 52.988281 C 50.851562 52.769531 50.398438 52.769531 50.027344 52.960938 C 49.664062 53.1875 49.449219 53.566406 49.414062 54.097656 L 48.425781 67.503906 C 48.410156 67.941406 48.363281 68.445312 48.667969 68.710938 Z M 66.925781 53.089844 C 67.292969 53.320312 67.710938 53.605469 68.09375 53.472656 C 68.355469 53.394531 68.582031 53.109375 68.722656 52.609375 C 70.4375 46.859375 70.4375 41.949219 68.722656 36.273438 C 68.617188 35.914062 68.449219 35.546875 68.148438 35.410156 C 67.84375 35.304688 67.460938 35.429688 66.910156 35.800781 L 55.683594 43.351562 C 55.246094 43.640625 55.023438 44.03125 55.023438 44.4375 C 55.023438 44.84375 55.246094 45.238281 55.683594 45.519531 Z M 64.453125 29.058594 C 64.464844 28.828125 64.324219 28.539062 63.996094 28.222656 C 59.828125 23.859375 55.542969 21.421875 49.664062 20.039062 C 49.335938 19.953125 48.953125 19.875 48.699219 20.097656 C 48.4375 20.308594 48.363281 20.707031 48.410156 21.308594 L 49.382812 34.757812 C 49.414062 35.265625 49.648438 35.664062 49.988281 35.871094 C 50.367188 36.085938 50.8125 36.042969 51.289062 35.820312 L 63.527344 29.980469 C 63.921875 29.792969 64.367188 29.585938 64.453125 29.171875 C 64.453125 29.144531 64.464844 29.113281 64.453125 29.058594 Z M 12.179688 53.054688 L 17.390625 51.554688 C 17.875 51.414062 18.28125 50.90625 18.242188 50.277344 C 16.371094 40.679688 18.75 32.898438 24.4375 26.664062 C 25.011719 26.257812 25.074219 25.421875 24.523438 24.855469 L 20.734375 21.089844 C 20.367188 20.671875 19.695312 20.671875 19.125 21.25 C 11.863281 28.8125 8.199219 40.402344 10.886719 52.261719 C 11.035156 52.832031 11.488281 53.25 12.179688 53.054688 Z M 76.957031 55.808594 L 71.730469 54.046875 C 71.457031 53.945312 70.746094 53.945312 70.371094 54.855469 C 66.152344 64.859375 56.332031 71.707031 44.960938 71.707031 C 33.574219 71.707031 23.574219 64.699219 19.539062 54.699219 C 19.347656 54.167969 18.769531 53.878906 18.226562 54.046875 L 13.03125 55.808594 C 12.46875 56.007812 12.128906 56.507812 12.421875 57.21875 C 17.527344 70.097656 30.214844 79.183594 44.960938 79.183594 C 59.703125 79.183594 72.449219 70.035156 77.570312 57.164062 C 77.835938 56.496094 77.515625 56.011719 76.957031 55.808594 Z M 70.917969 21.203125 C 70.402344 20.582031 69.554688 20.671875 69.3125 21.105469 L 65.535156 24.855469 C 64.984375 25.421875 65.039062 26.257812 65.613281 26.664062 C 71.308594 32.898438 73.6875 40.664062 71.824219 50.277344 C 71.777344 50.90625 72.183594 51.414062 72.679688 51.554688 L 77.898438 53.054688 C 78.59375 53.25 79.039062 52.832031 79.1875 52.242188 C 81.875 40.402344 78.195312 28.769531 70.917969 21.203125 Z M 58.757812 19.804688 L 59.953125 17.511719 L 63.199219 16.023438 C 62.859375 15.78125 62.488281 15.613281 62.144531 15.390625 L 59.914062 16.394531 L 59.5 13.996094 C 59.035156 13.777344 58.757812 13.683594 58.269531 13.488281 L 58.917969 16.976562 L 57.714844 19.238281 Z M 52.679688 71.714844 C 51.0625 72.0625 49.816406 72.351562 48.214844 72.601562 L 48.363281 73.519531 C 48.953125 73.429688 49.5 73.359375 50.125 73.285156 L 50.929688 77.71875 L 52.121094 77.496094 L 51.15625 73.070312 C 51.769531 72.921875 52.332031 72.765625 52.941406 72.628906 Z M 36.789062 72.492188 L 36.789062 72.789062 C 36.703125 73.519531 36.203125 74.265625 35.386719 74.359375 L 35.574219 76.917969 C 35.195312 76.832031 34.769531 76.707031 34.363281 76.539062 L 34.324219 74.132812 L 33.226562 73.671875 L 32.339844 75.792969 C 31.984375 75.675781 31.621094 75.566406 31.277344 75.390625 L 32.398438 72.808594 L 32.53125 72.492188 L 33.449219 70.355469 L 35.9375 71.304688 C 36.492188 71.5 36.746094 71.992188 36.789062 72.492188 Z M 35.746094 72.492188 C 35.710938 72.335938 35.648438 72.214844 35.457031 72.125 L 34.066406 71.617188 L 33.75 72.492188 L 33.636719 72.808594 L 33.628906 72.828125 L 34.898438 73.296875 C 35.246094 73.449219 35.578125 73.144531 35.703125 72.808594 C 35.746094 72.714844 35.777344 72.601562 35.746094 72.492188 Z M 52.644531 17.261719 C 52.203125 17.136719 51.867188 17.078125 51.382812 16.945312 L 52.285156 13.902344 L 52.941406 11.730469 C 53.898438 11.964844 54.796875 12.269531 55.703125 12.558594 C 56.21875 12.714844 56.488281 13.292969 56.542969 13.902344 C 56.574219 14.730469 56.160156 15.632812 55.3125 15.816406 L 55.640625 18.269531 C 55.246094 18.109375 54.953125 17.984375 54.515625 17.816406 L 54.226562 15.671875 L 53.164062 15.351562 Z M 53.40625 14.390625 L 54.65625 14.789062 C 54.992188 14.886719 55.441406 14.359375 55.441406 13.902344 C 55.441406 13.683594 55.367188 13.488281 55.070312 13.421875 C 54.609375 13.246094 54.292969 13.171875 53.792969 13.042969 L 53.535156 13.898438 Z M 47.371094 75.101562 L 48.570312 77.988281 C 48.175781 78.003906 47.8125 78.039062 47.460938 78.085938 L 47.085938 77.148438 L 44.683594 77.214844 L 44.410156 78.191406 C 44.035156 78.160156 43.65625 78.148438 43.28125 78.148438 L 44.320312 75.101562 L 45.058594 72.789062 L 45.09375 72.714844 L 46.320312 72.660156 L 46.382812 72.808594 Z M 46.640625 76.148438 L 46.207031 75.101562 L 45.773438 73.964844 L 45.398438 75.101562 L 45.023438 76.222656 Z M 53.996094 71.246094 L 55.835938 76.445312 C 56.195312 76.320312 56.578125 76.210938 56.941406 76.054688 L 55.15625 70.886719 C 54.664062 71.050781 54.441406 71.117188 53.996094 71.246094 Z M 27.296875 16.472656 L 26.988281 15.925781 C 27.796875 15.421875 28.671875 14.980469 29.507812 14.535156 C 30.496094 13.996094 31.886719 15.300781 31.789062 16.472656 C 31.769531 16.679688 31.710938 16.871094 31.589844 17.058594 L 33.609375 18.511719 C 33.226562 18.6875 32.9375 18.835938 32.488281 19.03125 L 30.714844 17.753906 L 29.742188 18.269531 L 30.78125 19.972656 C 30.378906 20.222656 30.136719 20.382812 29.667969 20.65625 Z M 28.515625 16.214844 L 28.671875 16.472656 L 29.230469 17.4375 L 30.398438 16.832031 C 30.507812 16.777344 30.566406 16.644531 30.589844 16.472656 C 30.613281 15.953125 30.230469 15.246094 29.679688 15.578125 C 29.246094 15.800781 28.984375 15.953125 28.515625 16.214844 Z M 28.515625 16.214844 "/>
</g>
</svg>
