<?xml version="1.0" encoding="UTF-8"?>
<svg xmlns="http://www.w3.org/2000/svg" xmlns:xlink="http://www.w3.org/1999/xlink" width="210px" height="130px" viewBox="0 0 210 130" version="1.1">
<defs>
<clipPath id="clip1">
  <path d="M 0 51.363281 L 210 51.363281 L 210 78.636719 L 0 78.636719 Z M 0 51.363281 "/>
</clipPath>
<linearGradient id="linear0" gradientUnits="userSpaceOnUse" x1="2.9763" y1="6.6697" x2="7.4521" y2="6.6697" gradientTransform="matrix(29.157229,14.087633,-22.756945,18.049713,108.175676,-129.85309)">
<stop offset="0" style="stop-color:rgb(100%,7.45098%,40.784314%);stop-opacity:1;"/>
<stop offset="1" style="stop-color:rgb(100%,7.058824%,14.901961%);stop-opacity:1;"/>
</linearGradient>
</defs>
<g id="surface1">
<g clip-path="url(#clip1)" clip-rule="nonzero">
<path style=" stroke:none;fill-rule:evenodd;fill:url(#linear0);" d="M 83.90625 51.363281 L 83.90625 72.960938 L 75.941406 72.960938 L 75.941406 70.519531 C 74.015625 72.292969 71.023438 73.308594 67.125 73.308594 C 59.953125 73.308594 54.246094 69.304688 54.246094 64.390625 C 54.246094 59.476562 59.953125 55.507812 67.125 55.507812 C 71.023438 55.507812 74.015625 56.519531 75.941406 58.296875 L 75.941406 51.363281 Z M 75.941406 64.390625 C 75.941406 62.023438 72.890625 60.175781 68.992188 60.175781 C 65.152344 60.175781 62.042969 62.058594 62.042969 64.390625 C 62.042969 66.757812 65.152344 68.605469 68.992188 68.605469 C 72.890625 68.605469 75.941406 66.796875 75.941406 64.390625 Z M 52.273438 64.425781 C 52.273438 69.511719 46.003906 73.308594 37.871094 73.308594 C 29.679688 73.308594 23.464844 69.511719 23.464844 64.425781 C 23.464844 59.339844 29.679688 55.507812 37.871094 55.507812 C 46.003906 55.507812 52.273438 59.339844 52.273438 64.425781 Z M 31.257812 64.425781 C 31.257812 66.796875 34.078125 68.605469 37.867188 68.605469 C 41.59375 68.605469 44.472656 66.796875 44.472656 64.425781 C 44.472656 61.984375 41.59375 60.210938 37.867188 60.210938 C 34.085938 60.210938 31.257812 61.984375 31.257812 64.425781 Z M 115.757812 72.960938 L 115.757812 55.855469 L 107.792969 55.855469 L 107.792969 58.292969 C 105.875 56.519531 102.878906 55.507812 98.984375 55.507812 C 91.808594 55.507812 86.101562 59.476562 86.101562 64.386719 C 86.101562 69.300781 91.808594 73.304688 98.984375 73.304688 C 102.878906 73.304688 105.875 72.292969 107.792969 70.515625 L 107.792969 72.957031 L 115.757812 72.957031 Z M 100.84375 60.175781 C 104.746094 60.175781 107.792969 62.023438 107.792969 64.390625 C 107.792969 66.796875 104.746094 68.605469 100.84375 68.605469 C 97.007812 68.605469 93.898438 66.757812 93.898438 64.390625 C 93.898438 62.058594 97.007812 60.175781 100.84375 60.175781 Z M 138.90625 55.855469 L 132.75 65.851562 L 126.589844 55.855469 L 118.007812 55.855469 L 128.683594 71.566406 L 123.539062 78.632812 L 132.070312 78.632812 L 147.492188 55.855469 Z M 178.878906 72.960938 L 178.878906 55.855469 L 170.914062 55.855469 L 170.914062 72.960938 Z M 199.941406 64.109375 L 210 72.960938 L 200.398438 72.960938 L 195.140625 68.328125 L 189.886719 72.960938 L 180.394531 72.960938 L 190.394531 64.148438 L 181.019531 55.855469 L 190.625 55.855469 L 195.199219 59.898438 Z M 168.453125 55.855469 L 168.453125 60.519531 L 161.609375 60.519531 L 161.609375 65.921875 C 161.609375 67.765625 163.644531 68.566406 166.414062 68.566406 C 167.089844 68.566406 167.824219 68.535156 168.445312 68.429688 L 168.445312 72.960938 C 167.375 73.136719 165.734375 73.238281 164.609375 73.238281 C 158.058594 73.238281 153.648438 70.589844 153.648438 65.992188 L 153.648438 60.523438 L 147.050781 60.523438 L 150.210938 55.855469 L 153.648438 55.855469 L 153.648438 51.40625 L 161.613281 51.40625 L 161.613281 55.855469 Z M 21.402344 60.535156 L 21.402344 55.867188 L 14.566406 55.867188 L 14.566406 51.417969 L 6.597656 51.417969 L 6.597656 55.867188 L 3.15625 55.867188 L 0 60.535156 L 6.597656 60.535156 L 6.597656 66.003906 C 6.597656 70.605469 11.003906 73.253906 17.558594 73.253906 C 18.6875 73.253906 20.328125 73.148438 21.398438 72.972656 L 21.398438 68.445312 C 20.773438 68.550781 20.039062 68.585938 19.363281 68.585938 C 16.59375 68.585938 14.5625 67.78125 14.5625 65.941406 L 14.5625 60.539062 L 21.402344 60.539062 Z M 202.179688 60.867188 C 204.832031 60.867188 207.035156 59.507812 207.035156 57.871094 C 207.035156 56.269531 204.832031 54.910156 202.179688 54.910156 C 199.523438 54.910156 197.320312 56.269531 197.320312 57.871094 C 197.320312 59.503906 199.519531 60.867188 202.179688 60.867188 Z M 202.179688 60.867188 "/>
</g>
</g>
</svg>
